<svg xmlns="http://www.w3.org/2000/svg" viewBox="0 0 284 284" width="284" height="284" fill="none">
    <g clip-path="url(#a)">
        <path stroke="#000" stroke-width="1.104"
            d="M141.133 160.683a.354.354 0 0 0-.431.172c-1.108 2.07-4.766 4.294-5.553 2.085-.474-1.769-1.271-3.154-2.148-4.678-1.075-1.866-2.27-3.943-3.141-7.193-2.076-7.75 2.718-15.281 10.254-17.3s15.082 2.51 17.102 10.051c2.021 7.54-2.478 15.136-9.754 17.086-2.582.692-3.932.664-6.329-.223Zm.993-20.251c-3.627.771-5.753 4-5.327 8.049.352 3.353 2.306 7.03 3.131 7.02.351-.004.978-.819 1.407-1.514a.342.342 0 0 1 .386-.148c1.041.308 2.164.447 3.297.207 3.723-.792 6.207-4.537 5.415-8.26-.792-3.723-4.586-6.145-8.309-5.354Z"
            clip-rule="evenodd" />
        <path stroke="#000" stroke-linecap="round" stroke-linejoin="round" stroke-width="1.104"
            d="M216.866 109.401c3.013-2.869 8.086-9.243 4.278-11.783-4.759-3.175-6.348 6.099-4.278 11.783Zm0 0a148.736 148.736 0 0 1-1.704 6.9m-58.657 60.097c22.62.143 47.181-19.108 58.404-59.183m0 0c6.109 1.453 13.18-1.752 11.584-5.867-2.081-5.369-6.665 4.176-11.331 4.953m-.253.914c.085-.303.169-.608.253-.914m-.42.883c-6.017-1.797-10.538-8.108-7.099-10.874 4.487-3.609 3.685 6.949 7.337 9.955-.081.307-.16.613-.238.919Zm-3.066 8.947c-6.017-1.797-10.537-8.108-7.098-10.874 4.487-3.609 3.684 6.95 7.337 9.956-.081.306-.16.612-.239.918Zm-3.235 9.377c-5.949-2.01-10.24-8.48-6.704-11.12 4.613-3.446 3.432 7.076 6.975 10.211-.092.304-.182.607-.271.909Zm-5.676 10.097c-5.567-2.905-8.81-9.958-4.909-12.022 5.09-2.693 2.301 7.521 5.317 11.165a166.3 166.3 0 0 0-.408.857Zm-6.26 9.033c-5.311-3.35-7.966-10.645-3.909-12.383 5.294-2.267 1.677 7.685 4.385 11.563-.16.274-.319.547-.476.82Zm-7.218 8.227c-4.918-3.904-6.769-11.443-2.548-12.732 5.507-1.683.837 7.82 3.111 11.969-.189.254-.377.509-.563.763Zm-9.567 6.696c-4.141-4.72-4.615-12.469-.231-12.983 5.719-.671-.574 7.845.921 12.332l-.69.651Zm-8.534 3.807c-2.405-3.891-1.81-9.514 1.4-9.355 4.19.209-1.359 5.566-.826 8.971l-.574.384Zm40.934-47.133c5.525 2.984 13.184 1.718 12.708-2.67-.621-5.724-7.519 2.309-12.227 1.852l-.481.818Zm-3.239 9.393c5.414 3.181 13.113 2.191 12.795-2.211-.415-5.744-7.597 2.037-12.286 1.411-.169.268-.339.535-.509.8Zm-5.7 10.163c4.859 3.977 12.619 4.187 12.984-.212.475-5.739-7.821.841-12.357-.5-.209.239-.418.476-.627.712Zm-6.277 9.067c4.517 4.362 12.234 5.205 12.957.851.944-5.68-7.862.199-12.274-1.509-.227.221-.455.44-.683.658Zm-7.243 8.269c4.019 4.824 11.6 6.496 12.789 2.246 1.552-5.546-7.838-.652-12.039-2.827-.25.195-.5.389-.75.581Zm-9.62 6.758c3.093 5.465 10.253 8.465 12.182 4.496 2.518-5.179-7.595-2.042-11.34-4.933-.281.147-.562.293-.842.437Zm-8.664 3.755c1.562 4.299 6.343 7.318 8.209 4.699 2.433-3.416-5.21-2.384-7.551-4.912l-.658.213ZM4.148 36.59C1.716 31.337-.444 16.726 10.373.307m0 0c4.49-2.117 11.696-7.992 6.708-10.357-4.192-1.987-6.097 4.471-6.708 10.357ZM6.767 6.608c-1.631-1.71-.999-4.765.231-8.274 1.23-3.51-.159-5.45-2.734-4.591C1.044-5.185.925 3.519 6.767 6.608Zm-4.08 11.513c-1.943-1.346-1.94-4.466-1.444-8.15C1.74 6.284-.01 4.664-2.36 6.024c-2.937 1.7-1.297 10.249 5.047 12.096ZM7.235 6.917c2.333.377 4.494-1.873 6.692-4.872 2.198-2.998 4.584-2.95 5.333-.341.936 3.262-6.174 8.283-12.025 5.213ZM3.208 18.328c2.36-.1 4.024-2.74 5.572-6.12 1.548-3.381 3.894-3.816 5.154-1.411 1.575 3.005-4.376 9.358-10.726 7.531ZM1.983 29.502c-2.094-1.097-2.476-4.193-2.439-7.91.038-3.719-1.9-5.11-4.064-3.47-2.705 2.05-.022 10.33 6.503 11.38Zm.543.14c2.33-.392 3.655-3.216 4.773-6.762 1.119-3.546 3.393-4.267 4.94-2.036 1.935 2.788-3.186 9.826-9.713 8.799ZM4.148 320.586c-2.432-5.253-4.592-19.863 6.225-36.283m0 0c4.49-2.117 11.696-7.992 6.708-10.357-4.192-1.987-6.097 4.471-6.708 10.357Zm-3.606 6.301c-1.631-1.711-.999-4.765.231-8.274 1.23-3.509-.159-5.449-2.734-4.591-3.22 1.073-3.339 9.776 2.503 12.865Zm-4.08 11.513c-1.943-1.346-1.94-4.466-1.444-8.151.497-3.685-1.254-5.305-3.604-3.944-2.937 1.7-1.297 10.248 5.047 12.095Zm4.549-11.204c2.333.377 4.494-1.873 6.692-4.871 2.198-2.999 4.584-2.951 5.333-.342.936 3.262-6.174 8.283-12.025 5.213Zm-4.028 11.412c2.36-.102 4.024-2.741 5.572-6.122 1.548-3.38 3.894-3.815 5.154-1.41 1.575 3.006-4.376 9.358-10.726 7.532Zm-1.225 11.173c-2.094-1.097-2.476-4.193-2.439-7.911.038-3.718-1.9-5.109-4.064-3.469-2.705 2.05-.022 10.331 6.503 11.38Zm.543.141c2.33-.392 3.655-3.217 4.773-6.763 1.119-3.546 3.393-4.267 4.94-2.036 1.935 2.788-3.186 9.827-9.713 8.799ZM288.15 36.59c-2.432-5.253-4.591-19.864 6.225-36.283m0 0c4.491-2.117 11.697-7.992 6.708-10.357-4.192-1.987-6.097 4.471-6.708 10.357Zm-3.606 6.301c-1.631-1.71-.998-4.765.232-8.274 1.229-3.51-.159-5.45-2.735-4.591-3.219 1.072-3.338 9.776 2.503 12.865Zm-4.08 11.513c-1.943-1.346-1.94-4.466-1.443-8.15.496-3.686-1.255-5.306-3.605-3.946-2.937 1.7-1.297 10.249 5.048 12.096Zm4.549-11.204c2.333.377 4.495-1.873 6.693-4.872 2.198-2.998 4.583-2.95 5.332-.341.937 3.262-6.173 8.283-12.025 5.213Zm-4.028 11.411c2.361-.1 4.025-2.74 5.572-6.12 1.548-3.381 3.894-3.816 5.154-1.411 1.576 3.005-4.375 9.358-10.726 7.531Zm-1.225 11.174c-2.094-1.097-2.476-4.193-2.439-7.91.038-3.719-1.9-5.11-4.064-3.47-2.704 2.05-.021 10.33 6.503 11.38Zm.543.14c2.331-.392 3.655-3.216 4.774-6.762 1.118-3.546 3.392-4.267 4.94-2.036 1.935 2.788-3.186 9.826-9.714 8.799ZM162.128 107.577c-2.75 6.73-5.68 12.692-7.955 16.874.561.573 1.842 1.566 2.472.95.622-.607 3.869-11.974 5.483-17.824Zm0 0c.034-.085-.034.084 0 0Zm0 0c-3.893.065-6.631 2.992-9.73 4.382-3.269 1.466-6.408.073-7.568-.806 0 0 4.317-2.371.44-3.1-4.223-.794-5.969-3.205-6.3-4.392 3.524 1.091 5.813-1.733 1.084-4.06-3.783-1.86-4.904-3.792-4.992-4.525 8.49 1.236 6.292-4.953 4.132-8.202 1.333-.015 3.262.717 4.06 1.085-.873-9.656 2.013-14.725 3.565-16.052 7.595 18.661 10.956 10.766 11.377 5.94.337-3.86 1.875-6.033 2.602-6.636m1.33 36.366c.011-.001-.011 0 0 0Zm0 0c7.312 1.069 8.386 12.684 22.769 4.485-2.902-.328-4.327-2.534 5.114-5.594-1.889-.355-5.786-1.462-4.391-4.335 1.745-3.59 7.788-8.728 6.957-15.753m-30.449 21.197c2.372-5.831 4.696-12.48 6.338-18.79m1.797-24.789c3.357 5.178 3.059 9.39 4.741 10.74 1.346 1.08 2.813-.45 3.378-1.348m-8.119-9.392c-2.616 15.202-7.4 11.143-9.465 7.213m9.465-7.213c1.24 5.078.943 11.34-.274 17.974a96.323 96.323 0 0 1-1.523 6.816m24.111-2.408c-.687.604-3.241 1.8-7.955 1.758a15.259 15.259 0 0 0-3.39.333c-.387-.947-.772-4.047.792-8.874-1.653 1.19-4.695 1.614-3.642-6.207m14.195 12.99c-9.642 14.276-24.445 20.363-30.273 20.758-15.162-6.317-16.804-26.005-15.713-34.937m31.791 1.189c-2.873 9.888-7.808 14.385-9.916 15.397m-7.668-17.576c-.57 3.577.165 12.1 7.668 17.576M263.68 168.441c-1.041.965-2.907 3.866-2.04 7.749.423 1.89.86 5.155-.11 8.29m2.15-16.039c-2.592 1.312-5.49 2.189-9.071 2.323-.804.03-1.563.1-2.279.205m11.35-2.528c-.839.442-2.911 2.008-4.489 4.74-.879 1.524-2.259 4.473-4.549 7.743m-13.548 11.548c.812-.471 2.131-2.391.908-6.309-1.43-4.581-.038-13.66 10.328-15.194m-11.236 21.503a31.516 31.516 0 0 0 8.694-5.876m-8.694 5.876c13.933 1.524 18.915-3.075 20.436-7.992m-20.436 7.992c-3.324 1.482-10.033 6.206-10.279 13.246 0 0 .819.626 2.449.078 0 0-1.191-7.562 7.83-13.324Zm8.694-5.876c2.129.398 7.458.531 11.742-2.116m-11.742 2.116c1.961-1.859 3.554-3.817 4.854-5.672m-2.312-9.955c.788 1.953 2.354 6.677 2.312 9.955m-14.625 14.166c6.047-1.75 18.026-1.077 17.568 15.617m-17.568-15.617c-3.664 12.354 10.185 15.559 17.568 15.617m-17.568-15.617c4.362 3.014 13.982 10.358 17.568 15.617m-19.08-17.323c2.281-5.719 3.038-18.173-12.175-22.226m12.175 22.226c-12.897.569-17.245-17.314-12.175-22.226m12.175 22.226c-2.317-7.819-9.082-18.075-12.175-22.226M33.31 227.672c-8.586-2.489-8.671-4.591-8.163-6.28.293-.976 2.47-3.541 8.438-4.174m-.275 10.454c3.401.986 2.439 9.444 8.684 6.231m-8.684-6.231c-2.413-1.557-5.516-4.743-3.617-7.656m28.705 7.132c1.308 2.619 3.552 8.873 2.063 12.944-1.861 5.088-12.407 2.539-17.64-2.293-1.426-1.317-1.258-3.278-.206-5.459m30.036-27.382c2.138-8.68.36-9.805-1.357-10.21-.794-.187-3.072.162-5.76 2.795m7.117 7.415c-.846 3.439 6.959 6.835 1.055 10.636m-1.055-10.636c-.1-2.866-1.003-7.379-3.61-8.202m-9.387 29.667c1.613 2.442 5.908 7.513 10.177 8.259 5.337.932 8.403-9.476 6.835-16.423-.43-1.908-2.236-2.741-4.677-2.912M54.6 222.998c-1.52-2.635-1.364-4.052-.462-4.573.901-.521 2.207.053 3.728 2.688.119.204.23.408.336.611m-3.602 1.274c-1.187 3.077-2.554 5.244-3.947 6.74m3.947-6.74c.622 1.076 1.317 1.998 1.983 2.678m-16.077-12.143c1.477-.734 5.826-1.247 11.398 2.565m.908-.473c-.565-3.116-.793-9.829 2.824-11.753m-22.052 13.346c4.36-.463 10.746.106 19.9 3.082-.509.405-1.056.857-1.626 1.348m-18.274-4.43c-2.024.851-3.246 1.809-3.892 2.798m35.841-22.473c-3.127 3.061-6.808 9.212-9.354 21.201.862-.339 1.849-.698 2.912-1.052m6.442-20.149c1.417-.903 2.572-1.083 3.508-.787m-39.349 23.26c.444.652 1.733 1.468 4.184 2.022m17.982-.39c-8.85 1.425-14.554 1.165-17.982.39m17.982-.39c-1.755 1.51-3.73 3.383-5.463 5.341m-12.52-4.951c.904 3.355 4.672 9.043 12.52 4.951m0 0c-1.576 1.782-2.952 3.635-3.78 5.351m26.426-35.584c.407.921.544 2.701-.153 5.269m-9.797 15.667c6.087-6.696 8.798-11.99 9.797-15.667m-9.797 15.667a58.976 58.976 0 0 1 5.454-1.534m4.343-14.133c2.24 3.33 4.507 10.82-4.343 14.133m0 0c2.637-.596 5.288-.961 7.443-.811M42.615 232.34c1.653.725 4.911.756 8.039-2.602m0 0c-.955 2.919-1.988 8.689 1.513 8.413 3.5-.277 4.403-8.432 4.417-12.475m0 0c.966.984 1.871 1.458 2.405 1.15.454-.262.552-1.04.344-2.085m-1.13-3.017c.57 1.094.956 2.148 1.13 3.017m-1.13-3.017c1.728.112 4.13.052 6.447-.395m7.339-5.982c-.162 3.567-3.64 5.269-7.34 5.982m-5.316 3.412c.78.282 8.494 5.81 11.488 2.125 2.395-2.948-3.116-4.919-6.171-5.537m-10.105-5.085c.745 1.09.307 1.641-.385 2.114-.692.472-1.375.687-2.12-.403-.744-1.09-.316-1.699.375-2.171.692-.473 1.386-.63 2.13.46ZM28.866 25.305c-3.72-3.042-.366-13.04 3.254-13.987.692-.083 2.896.584 4.922 4.156 1.481 2.61 2.867 6.773 3.497 13.33a38.573 38.573 0 0 0-1.29-.652c-1.426-.69-3.14-1.418-4.842-1.971-1.548-.503-3.087-.86-4.39-.912-1.656-.065-2.933.364-3.37 1.619-1.604 4.603-.325 11.917 3.376 11.696 2.96-.176 6.274-3.292 7.56-4.828m11.429 6.454c3.997 2.667 11.903-3.583 12.405-5.882 1.587-4.915-11.002-7.035-19.165-4.258.448.45.942.97 1.455 1.541a40.058 40.058 0 0 1 2.45 3.004c1.095 1.492 2.048 3.056 2.541 4.45.56 1.578.53 2.939-.55 3.73-3.933 2.88-11.3 3.797-12.173.193-.697-2.883 1.313-6.962 2.405-8.642m2.864-15.534c.864.727 2.59 3.696.395 9.708m.374.279c1.987-1.88 7.23-4.873 9.423-3.128m-10.21 6.105c1.238-1.674 1.242-2.65.669-3.073-.573-.424-1.506-.136-2.744 1.538-.506.684-.895 1.372-1.14 1.975-.353.875-.404 1.573-.065 1.823.288.214.804.063 1.402-.353.499-.346 1.055-.876 1.586-1.532.098-.122.196-.248.292-.378ZM76.156 102.834c-3.532-2.295-6.509-3.139-8.404-3.437-2.594-.408-3.805.43-4.04.808-.966 2.189 2.7 7.847 5.704 7.197m6.74-4.568c1.86-5.19 8.313-10.695 10.14-7.945.95 1.166.931 7.611-1.995 8.549m-8.145-.604c-.26.113-.886.362-1.182.505-.913.44-1.96 1.007-2.914 1.639-.868.574-1.66 1.202-2.204 1.834-.692.802-.985 1.612-.531 2.33 1.664 2.635 5.833 4.907 7.196 2.967 1.09-1.552.87-4.431.614-5.686.406 1.215 1.647 3.845 3.367 4.644 2.15.998 4.624-3.054 4.749-6.168.034-.855-.635-1.411-1.648-1.76-.893-.308-2.055-.454-3.237-.5a25.992 25.992 0 0 0-2.48.03 40.05 40.05 0 0 0-1.73.165Zm-4.763-4.696c.708-.142 2.335.55 4.47 4.042-.15-1.742-.426-5.757 1.32-6.16M216.892 3.177c.544.439 1.629 1.806 1.137 3.148-.615 1.677-2.933 4.766 1.792 6.307.875-.305 3.141-.834 5.206-.513 2.065.321 4.063 1.513 4.804 2.069 4.97-.034 3.7-3.68 3.622-5.466-.061-1.428 1.387-2.401 2.039-2.654M220 19.56c-.156.512-.997 1.43-3.114 1.119m0 0a6.838 6.838 0 0 1-.165-.027m.165.027-.165-.027m.165.027 4.937.79m-5.102-.817a39.274 39.274 0 0 0-.564 2.028m15.229.317c-.801-.132-2.471-.769-2.745-2.257m2.745 2.257a52.638 52.638 0 0 1-.067 1.803m.067-1.803-5.278-.844m-15.764 18.792c-.636-3.04-.893-10.961 3.166-18.313.389-.072 1.462-.163 2.647.048m0 0c-.694 2.774-1.273 6.246-1.284 9.596m16.446-7.476c.443-.01 1.531.062 2.34.431 1.011.462 1.221 13.69-2.319 18.181m-.021-18.611c-.157 2.902-.567 6.389-1.349 9.605m-16.408 17.178c.73-1.771 2.058-5.908 1.524-8.29-.668-2.978-4.04-9.69-.213-11.018m0 0c-.017 5.25 1.358 10.199 5.862 11.688m0 0c4.947 1.636 7.757-3.477 9.235-9.558m-9.235 9.558c.219-7.038 1.916-15.47 2.737-18.807m1.693 27.853c-.142-1.718-.048-5.698 1.459-7.876 1.884-2.722 6.785-8.11 3.346-10.728m-8.147-12.938c-.119 1.237.046 3.706 1.649 3.689m-1.649-3.689 4.285.685m-2.636 3.004c1.604-.018 2.426-2.01 2.636-3.004m-1.715-25.926s-.84 3.043.545 5.712c.512-.082 1.856-.103 3.142.476m2.257-5.264s-.123 3.154-2.252 5.277m-9.333 12.626c-2.13-.755-3.991-.742-4.655-.641-5.251-4.7-6.287-12.097-6.066-17.077m.357-3.208c-.167.864-.301 1.96-.357 3.208m0 0c-1.601-.61-2.57-2.487-2.57-2.487m26.664 22.283c2.259-.072 4.028.505 4.63.803 6.43-2.884 9.662-9.618 10.963-14.43m.634-3.165c-.104.873-.308 1.959-.634 3.165m0 0c1.711-.095 3.204-1.59 3.204-1.59m-31.066 10.697c-.998 1.788-2.592 5.58-.975 6.433 2.021 1.067 11.782 2.366 12.607 1.28.66-.87.158-4.512-.175-6.224m-11.05-31.524c-1.118 1.828-2.292 5.588 1.955 6.001-1.802.118-5.359.792-5.169 2.546.104.962 1.403.91 2.895.498-1.544.835-4.18 3.26-2.371 6.282 2.262 3.778 5.402 2.148 7.247 3.898 1.846 1.75-14.711 7.192-11.618-11.497.392-.209 2.569-1.066 3.176-2.788.758-2.154 1.435-4.281 3.885-4.94Zm18.153 2.822c.51 2.08.488 6.02-3.684 5.124 1.681.66 4.865 2.381 4.152 3.995-.39.885-1.613.442-2.909-.404 1.218 1.264 2.993 4.374.352 6.705-3.302 2.913-5.8.407-8.089 1.514-2.289 1.107 11.834 11.318 14.56-7.428-.31-.317-2.124-1.795-2.179-3.62-.069-2.282-.068-4.515-2.203-5.886ZM216.892 287.173c.544.439 1.629 1.806 1.137 3.148-.615 1.677-2.933 4.767 1.792 6.307.875-.305 3.141-.834 5.206-.513 2.065.321 4.063 1.513 4.804 2.069 4.97-.033 3.7-3.681 3.622-5.466-.061-1.428 1.387-2.401 2.039-2.654M220 303.557c-.156.512-.997 1.431-3.114 1.119m0 0a5.644 5.644 0 0 1-.165-.027m.165.027-.165-.027m.165.027 4.937.789m-5.102-.816a39.392 39.392 0 0 0-.564 2.028m15.229.317c-.801-.132-2.471-.769-2.745-2.256m2.745 2.256a52.676 52.676 0 0 1-.067 1.804m.067-1.804-5.278-.844m-15.764 18.792c-.636-3.041-.893-10.961 3.166-18.313.389-.072 1.462-.163 2.647.048m0 0c-.694 2.774-1.273 6.246-1.284 9.596m16.446-7.475c.443-.011 1.531.061 2.34.431 1.011.461 1.221 13.689-2.319 18.18m-.021-18.611c-.157 2.903-.567 6.389-1.349 9.605m-16.408 17.178c.73-1.771 2.058-5.908 1.524-8.29-.668-2.978-4.04-9.69-.213-11.018m0 0c-.017 5.25 1.358 10.199 5.862 11.688m0 0c4.947 1.636 7.757-3.477 9.235-9.558m-9.235 9.558c.219-7.037 1.916-15.47 2.737-18.807m1.693 27.853c-.142-1.718-.048-5.698 1.459-7.876 1.884-2.722 6.785-8.111 3.346-10.728m-8.147-12.938c-.119 1.237.046 3.706 1.649 3.689m-1.649-3.689 4.285.685m-2.636 3.004c1.604-.018 2.426-2.01 2.636-3.004m-1.715-25.925s-.84 3.042.545 5.711c.512-.082 1.856-.103 3.142.476m2.257-5.264s-.123 3.154-2.252 5.277m-9.333 12.626c-2.13-.755-3.991-.742-4.655-.641-5.251-4.7-6.287-12.096-6.066-17.077m.357-3.208c-.167.864-.301 1.96-.357 3.208m0 0c-1.601-.61-2.57-2.487-2.57-2.487m26.664 22.284c2.259-.073 4.028.504 4.63.802 6.43-2.884 9.662-9.617 10.963-14.43m.634-3.165a22.64 22.64 0 0 1-.634 3.165m0 0c1.711-.095 3.204-1.59 3.204-1.59m-31.066 10.697c-.998 1.788-2.592 5.579-.975 6.433 2.021 1.068 11.782 2.366 12.607 1.279.66-.869.158-4.511-.175-6.223m-11.05-31.524c-1.118 1.828-2.292 5.588 1.955 6.001-1.802.118-5.359.792-5.169 2.546.104.962 1.403.91 2.895.498-1.544.835-4.18 3.26-2.371 6.282 2.262 3.778 5.402 2.148 7.247 3.898 1.846 1.75-14.711 7.192-11.618-11.497.392-.209 2.569-1.066 3.176-2.788.758-2.154 1.435-4.281 3.885-4.94Zm18.153 2.822c.51 2.081.488 6.019-3.684 5.125 1.681.659 4.865 2.38 4.152 3.994-.39.885-1.613.442-2.909-.404 1.218 1.264 2.993 4.375.352 6.705-3.302 2.913-5.8.407-8.089 1.514-2.289 1.107 11.834 11.318 14.56-7.428-.31-.317-2.124-1.795-2.179-3.62-.069-2.282-.068-4.515-2.203-5.886ZM-2.113 215.213c.398-.817.848-1.724 1.346-2.711m0 0c5.607-11.121 17.229-32.267 28.09-45.889m-28.09 45.889c-4.929-3.418-1.192-7.98.997-10.394 1.752-1.931 1.18-5.783.674-7.468-.524-2.189-.898-6.176 1.797-4.604 3.369 1.966 6.4 1.123 3.818-3.2-2.583-4.323-3.032-11.903-.169-13.981 2.291-1.662 4.148.33 4.79 1.533.307.05.945-.243 1.04-1.811.119-1.96.327-6.801 3.178-6.445.405-.02 1.538.362 2.82 2.049 1.605 2.109.862-2.613 2.733-2.821 1.871-.208 1.574 1.93 3.089 1.544 1.515-.386 5.227-3.415 4.187 4.336-.02.337.41.951 2.287.713 2.346-.297 2.524 3.148-1.277 5.702-.257.307-.6 1.016.09 1.396.86.475 3.563-.446 4.098 1.93.534 2.376-2.198 4.752-6.564 6.237-4.366 1.485-3.772 2.406-2.227 3.178 1.544.772 2.405 1.722 1.574 3.148-.832 1.425-3.089 3.415-9.86 3.385-6.771-.029-4.306 4.218-3.534 5.495.772 1.277.356 3.118-5.079 4.009-2.858.469-.294 9.644-8.462 6.069Zm2.09-22.543c1.083 1.272 3.506 5.053 4.537 10.002m4.382-7.579c3.746.516 12.147 1.207 15.776-.154m-11.188-25.83c-.085 2.956.165 10.043 1.856 14.745M281.89 215.213c.398-.817.848-1.724 1.345-2.711m0 0c5.607-11.121 17.229-32.267 28.09-45.889m-28.09 45.889c-4.928-3.418-1.192-7.98.998-10.394 1.752-1.931 1.179-5.783.674-7.468-.524-2.189-.899-6.176 1.796-4.604 3.369 1.966 6.401 1.123 3.818-3.2-2.582-4.323-3.032-11.903-.168-13.981 2.291-1.662 4.148.33 4.79 1.533.307.05.944-.243 1.039-1.811.119-1.96.327-6.801 3.178-6.445.406-.02 1.538.362 2.821 2.049 1.604 2.109.862-2.613 2.733-2.821 1.871-.208 1.574 1.93 3.088 1.544 1.515-.386 5.227-3.415 4.188 4.336-.02.337.41.951 2.287.713 2.346-.297 2.524 3.148-1.277 5.702-.258.307-.6 1.016.089 1.396.861.475 3.563-.446 4.098 1.93.535 2.376-2.198 4.752-6.563 6.237-4.366 1.485-3.772 2.406-2.228 3.178 1.545.772 2.406 1.722 1.574 3.148-.831 1.425-3.088 3.415-9.86 3.385-6.771-.029-4.306 4.218-3.534 5.495.772 1.277.357 3.118-5.078 4.009-2.859.469-.295 9.644-8.463 6.069Zm2.09-22.543c1.083 1.272 3.506 5.053 4.537 10.002m4.382-7.579c3.747.516 12.147 1.207 15.777-.154m-11.188-25.83c-.086 2.956.165 10.043 1.856 14.745M125.094 263.858c4.864 6.421 9.867 13.275 9.547 13.942-.461.96-1.536 1.332-2.016 1.397-2.088-4.795-4.693-10.029-7.531-15.339Zm0 0c-8.293-15.519-18.584-31.689-23.83-39.46m23.963 39.623c-2.269 6.88-10.539 11.198-18.297 7.685-6.206-2.811-9.904-2.635-10.978-2.196.293-1.024 1.581-3.44 4.391-4.903l-9.075-10.759m33.959 10.173c17.491.586 16.174-10.465 16.174-16.027 0-4.45 2.586-6.734 3.878-7.319-3.805-.761-6.659.415-7.611 1.098l-3.179-16.4m-9.262 38.648c-14.011-1.86-28.315-7.482-33.842-10.117m33.842 10.117s-.321-9.952 5.073-22.029c3.392-7.596 4.297-13.519 4.201-16.171m-43.233 28.027c.036.019.075.038.117.056m-.117-.056.117.056m0 0c.838.361 3.057.574 6.177-1.153 3.279-1.815 5.611-2.464 6.367-2.562-.146-2-1.522-6.821-5.854-10.1l5.049-.365-1.829-15.37c1.366 1.513 5.02 4.655 8.709 5.124 3.688.468 6.562 2.634 7.538 3.659.512-.781 1.917-2.518 3.44-3.22-.244 2.146-.264 7.113 1.61 9.807-.561-1.513-.234-5.182 5.562-7.758 4.918-2.186 6.25-4.702 6.347-6.145m0 0a2.252 2.252 0 0 0-.012-.448m.012.448a6.717 6.717 0 0 0-.053-.661m.041.213a1.752 1.752 0 0 0-.041-.213m.041.213-.041-.213M-.504 103.578c-5.123-6.19-6.31-11.788-6.263-13.814l-3.483.202c1.843 5.605 7.265 11.41 9.746 13.612Zm0 0c3.623-3.777 13.416-5.242 25.454 1.901 9.63 5.714 15.262 7.336 16.873 7.432m-42.327-9.333c.28.407.581.829.904 1.265m31.968 38.108c-.272-2.305-2.688-8.574-10.173-15.205-7.03-6.227-16.82-16.169-21.795-22.903m0 0c-3.58 5.367-4.889 23.832.947 42.517m41.44-34.285c-1.607.397-5.595.824-8.69-.645l.086 3.707c-3.714-2.701-12.728-7.285-19.07-4.013.046.794 1.767 3.166 8.29 6.296 8.156 3.914 11.052 7.573 10.996 10.562-1.533-1.017-5.105-2.836-7.13-1.97 2.04 2.662 5.898 9.639 5.008 16.248-.413-1.166-2.41-3.951-7.088-5.762-2.333-.903-3.85-2.305-4.8-3.693-.675 1.27-1.77 4.607-.752 7.802-2.04-.966-7.083-5.33-10.941-15.062-1.499-3.781-1.269-6.616-3.557-8.573-1.372 2.468-2.923 9.22 1.848 16.49-.36.164-1.516.286-3.269-.535-1.314 3.057-3.56 10.188-2.027 14.253-1.768-1.392-5.523-6.655-6.408-16.579-.761.17-2.486.918-3.3 2.547-1.222-2.243-2.603-8.627 1.653-16.219-1.718.864-6.113 2.545-9.951 2.364.756-1.815 3.446-6.437 8.15-10.399-.5.117-1.706.233-2.54-.249 0 0 2.424-4.456 10.048-6.058.53-2.267 3.142-7.573 9.355-10.665.188.32.448 1.369-.02 3.004 1.42-1.628 5.386-4.86 9.893-4.758-.004.808-.655 3.403-3.23 7.315 2.031-1.247 7.978-2.711 15.505 1.41-.722.355-2.34 1.282-3.028 2.149.915-.233 3.896.716 8.5 6.372 2.246 2.759 4.128 3.98 6.47 4.661ZM283.493 103.578c-5.123-6.19-6.31-11.788-6.263-13.814l-3.484.202c1.844 5.605 7.266 11.41 9.747 13.612Zm0 0c3.623-3.777 13.416-5.242 25.454 1.901 9.631 5.714 15.261 7.336 16.873 7.432m-42.327-9.333c.279.407.581.829.903 1.265m31.969 38.108c-.272-2.305-2.688-8.574-10.173-15.205-7.03-6.227-16.82-16.169-21.796-22.903m0 0c-3.578 5.367-4.888 23.832.948 42.517m41.441-34.285c-1.608.397-5.596.824-8.691-.645l.086 3.707c-3.715-2.701-12.728-7.285-19.069-4.013.045.794 1.765 3.166 8.29 6.296 8.155 3.914 11.051 7.573 10.995 10.562-1.533-1.017-5.105-2.836-7.131-1.97 2.041 2.662 5.899 9.639 5.009 16.248-.413-1.166-2.409-3.951-7.088-5.762-2.333-.903-3.851-2.305-4.8-3.693-.675 1.27-1.77 4.607-.752 7.802-2.04-.966-7.084-5.33-10.941-15.062-1.499-3.781-1.269-6.616-3.557-8.573-1.372 2.468-2.923 9.22 1.848 16.49-.36.164-1.517.286-3.269-.535-1.314 3.057-3.56 10.188-2.027 14.253-1.768-1.392-5.524-6.655-6.409-16.579-.76.17-2.485.918-3.299 2.547-1.222-2.243-2.604-8.627 1.652-16.219-1.717.864-6.112 2.545-9.951 2.364.757-1.815 3.447-6.437 8.151-10.399-.499.117-1.706.233-2.54-.249 0 0 2.424-4.456 10.048-6.058.529-2.267 3.141-7.573 9.355-10.665.188.32.448 1.369-.02 3.004 1.42-1.628 5.386-4.86 9.893-4.758-.004.808-.655 3.403-3.231 7.315 2.032-1.247 7.979-2.711 15.506 1.41-.722.355-2.34 1.282-3.028 2.149.915-.233 3.896.716 8.5 6.372 2.246 2.759 4.127 3.98 6.47 4.661ZM236.542 226.222c3.065 3.645 11.101 11.98 18.723 16.155m-18.723-16.155c.769.775 3.124 2.221 6.392 1.807 4.085-.517 7.808-.827 10.135 2.068m-16.527-3.875c.7 1.051 2.132 3.71 2.256 5.944.155 2.792.051 8.532 2.585 9.773-1.465.137-5.129 1.147-8.066 4.085m19.752-15.927c.31-1.396 2.203-4.488 7.291-5.687 5.088-1.2 6.352-4.253 6.825-5.688m-14.116 11.375c.134 3.024 1.209 10.813 4.434 17.782 4.032 8.712 6.84 12.384 3.456 23.183-.456-.048-1.526-.244-2.16-.648 1.282-2.066 3.461-8.121 1.923-15.807m6.463-35.885c-.431 1.396-1.158 4.633-.62 6.411.672 2.224 3.723 6.412 1.293 10.859 1.361-1.189 4.953-3.351 8.428-2.482m-9.101-14.788c-.362 1.534-2.109 5.925-6.205 11.22-4.095 5.295-4.774 12.238-4.602 15.047m19.908-11.479c-.827.896-2.327 3.465-1.706 6.567.775 3.878 1.965 18.667-13.858 14.53m15.564-21.097c-3.536.463-5.895 5.586-8.775 11.921-2.304 5.069-6.003 7.471-7.565 8.038-2.637.518-4.395-1.396-13.03-5.325-6.908-3.144-11.945-2.724-13.599-2.12m27.405 8.583c-11.686 9.721-18.15 3.62-21.149-1.965-2.399-4.467-5.17-6.274-6.256-6.618M163.364 35.886a1.67 1.67 0 1 1 2.629 2.059 1.67 1.67 0 0 1-2.629-2.059Zm0 0a1.67 1.67 0 1 0-2.63-2.059 1.67 1.67 0 0 0 2.63 2.06Zm-.094 4.571c1.072-.537 3.241-1.964 3.086-3.7m-7.51.348c.265-1.17 1.131-3.617 2.852-3.883m6.353 9.36c-.219-1.153-.355-4.085.852-6.581 1.509-3.122 1.204-3.688.411-4.168m-13.7 1.01c1.173-.064 4.051-.634 6.186-2.405 2.669-2.213 3.291-2.052 3.948-1.398m14.224-4.02c-1.172.064-2.915 1.524-5.05 3.294-2.668 2.213-3.291 2.053-3.948 1.399m-1.167-12.653c.219 1.153-.781 3.195-1.988 5.692-1.508 3.121-1.203 3.688-.411 4.168m.545 6.854c-.25 1.547 1.075 4.46 5.652 9.053 5.72 5.742 4.976 17.36 9.067 16.357 3.998-.98 2.616-17.88-12.274-26.786m0 0a34 34 0 0 0-1.068-.612m1.068.612c7.648 3.964 13.421 12.484 16.335 12.694 3.033.218 2.47-5.831-2.275-9.61-3.796-3.022-10.819-4.836-13.856-5.365m-.204 2.281c-.317-.164-.636-.32-.959-.468m-5.123-1.005c-1.442.614-4.587.026-10.144-3.316-6.946-4.178-18.046-.67-18.053-4.883-.007-4.069 16.352-6.763 28.528 5.082m0 0c.429.417.852.851 1.269 1.305m-1.269-1.305c-5.711-6.293-15.093-9.791-15.981-12.528-.94-2.893 5.068-3.796 9.874-.095 3.844 2.962 7.289 9.345 8.531 12.167m-2.424.456c.327.36.641.729.942 1.107m6.206-2.583c-1.243 3.622-4.502 10.401-7.601 8.538-2.552-2.562 3.141-7.435 6.36-9.51.673-.41 2.209-1.689 2.965-3.517.945-2.284 7.309-18.248 12.606-14.888 4.771 3.717-9.635 14.19-11.627 15.655-1.593 1.172-2.466 2.97-2.703 3.722ZM126.426 215.016c-.252-.251-.745-1.118-.705-2.576-.04-.225-.362-.739-1.334-.991m-6.08-1.971c-.345-.245-1.134-.673-1.535-.431-.501.303-1.063 1.7-2.311 2.067m9.182 1.063c-.019.727-.438 2.214-1.957 2.345.237-.689.43-2.241-.697-2.935-1.126-.694-2.016 1.106-2.32 2.093-.576-.468-1.525-1.882-.152-3.608m0 0c-.608-1.226.004-3.082.888-3.43 1.051-.412 2.455.579 2.903 1.384a3.78 3.78 0 0 1 1.837-.045c1.987.471.704 3.034-.147 3.777-.681.594-2.285.039-2.991-.369-1.522-.203-2.129-.63-2.49-1.317Zm6.618-1.222c2.826-.412 5.339-4.035 3.915-5.852-1.425-1.817-5.276-3.144-8.965-3.304-3.147-.136-2.517 6.051-.894 7.065m9.332-4.339c.647.002 2.083-.471 2.995-2.207 3.133-5.96 3.864-15.459-1.43-17.316-4.235-1.486-9.079 6.762-10.43 13.534-.186.84-.257 2.603 1.024 3.27m9.289 11.21c-.458-.033-.804-.323-.967-.547 2.21-3.32 1.229-5.272.463-5.833 3.645-.295 2.749 5.051 1.55 6.003-.384.305-.74.398-1.046.377Zm0 0c.789.844.903 2.093.755 3.242m-.634 2.269c.24-.531.517-1.369.634-2.269m0 0c-.709.955-1.776 1.365-2.22 1.451m-14.608-10.462c.374.266.826.262 1.094.193.406-3.968 2.404-4.851 3.352-4.796-2.625-2.546-5.333 2.15-5.013 3.647.102.48.317.778.567.956Zm0 0c-1.145.149-2.028 1.041-2.644 2.022m-.954 2.154a8.412 8.412 0 0 1 .954-2.154m0 0c-.06 1.188.502 2.183.79 2.532m27.383-15.99c-1.597.23-4.995 2.096-5.816 7.724 0 0-1.324.424-3.009.08m-13.015-15.642c1.086 1.192 2.522 4.793-.424 9.659 0 0 .753 1.169 2.271 1.975m6.883 3.598c.309-.844.528-2.666-1.065-3.195m0 0c-1.594-.53-2.357 1.141-2.539 2.043m2.539-2.043c.597-2.72 2.465-9.464 5.158-14.684m10.15-4.788c-.65.124-2.074 1.287-2.568 4.948-.618 4.576-.73 8.262-4.023 7.965m-7.794-18.076c.423.509.782 2.312-1.164 5.451-2.434 3.925-4.691 6.841-1.961 8.706M182.196 196.898c-2.047 1.822-8.056 5.345-15.722 4.866m0 0c.474 2.995.868 10.272-1.348 15.423 2.546-3.07 6.888-4.687 3.893 13.401m-2.545-28.824c-8.011-7.711-10.032-12.128-10.257-12.502-.475.47-1.342 1.776-1.014 3.234.328 1.459 7.65 6.786 11.271 9.268Zm0 0a312.607 312.607 0 0 0 6.352 5.826m-3.807 22.998c4.717-6.863 13.326-14.105 10.032 11.828 1.622-1.522 5.435-2.44 7.711 6.064m-17.743-17.892c4.653-9.137 4.477-19.139 3.807-22.998m13.936 40.89c.749-4.192 3.01-12.382 6.064-11.604 3.819.973 7.337 11.53 15.423 14.3m-21.487-2.696c.72-12.407-2.251-26.663-3.826-32.24m25.313 34.936c-3.17-4.143-4.882-11.575 13.625-8.161m-13.625 8.161c-4.836-3.462-7.853-16.28-8.757-22.257m22.382 14.096c-4.891-3.868-12.203-12.517-2.321-16.171m2.321 16.171c-4.276-2.163-12.315-6.919-22.382-14.096m20.061-2.075c-4.766-.823-14.553-3.414-15.572-7.187-1.018-3.773 5.515-2.92 8.909-2.021.225-1.997 1.677-6.124 5.69-6.663m.973 15.871c-4.86.9-16.338 2.096-23.371-.319m22.398-15.552c-3.344.1-10.002-.809-9.882-5.241-4.068 1.747-12.592 4.507-14.15 1.572-1.557-2.934 2.795-6.263 5.166-7.561m18.866 11.23c-8.106 1.944-27.204 5.205-38.744 2.691m19.878-13.921c-2.071.574-6.603 1.243-8.16-.674-2.571 2.246-8.295 6.214-10.631 4.118-2.336-2.097.075-5.216 1.572-6.514m17.219 3.07c-5.416 3.024-18.375 8.828-26.888 7.847m0 0a320.418 320.418 0 0 0 7.01 6.074m0 0a310.1 310.1 0 0 0 3.1 2.576m0 0a313.831 313.831 0 0 0 13.246 10.285m0 0c1.125.826 2.229 1.624 3.31 2.394" />
        <path fill="#000"
            d="M64.581 148.122c.013.668-.448 1.219-1.03 1.23-.582.011-1.064-.522-1.076-1.189-.013-.668.448-1.219 1.03-1.23.581-.011 1.063.521 1.076 1.189Z" />
        <path stroke="#000" stroke-linecap="round" stroke-linejoin="round" stroke-width="1.104"
            d="M57.587 153.579c-1.346.352-2.013-.263-1.52-2.395 1.689-7.287 8.567-10.418 11.796-11.073.388-1.35.975-3.207 1.633-4.995m-11.908 18.463a3.567 3.567 0 0 1-.109-1.711m.108 1.711c.112.35.287.701.546 1.023M61 156.304c-1.234-.463-2.365-1.079-2.867-1.702m11.363-19.486c1.09-2.966 2.378-5.744 3.286-5.713 1.82.062-1.403 9.051 6.22 18.337.975.981 3.833 3.77 8.097 5.886 12.426 6.166 16.497 25.458-1.09 33.95m-16.513-52.46c0-2.822.522-5.894-.862-5.533-1.95.51-3.324 7.885-3.767 11.509m4.629-5.976v.041m16.512 52.419a3.577 3.577 0 0 1-.02.009m.02-.009-.146-.014m.146.014.03.003m-.05.006c-4.084-.347-14.602-1.999-23.998-5.837.212-2.146 2.374-5.127 9.321.112-8.517-8.123-3.202-22.627 13.165-16.739m1.513 22.464.05-.006m-13.81-64.662c-.278 1.455-.536 4.768.658 6.389m0 0c.113-1.117.609-3.898 1.69-6.084m-1.69 6.084c.654-1.198 2.329-3.859 3.793-4.919m-9.357-1.352c-.015 1.48.323 4.787 1.786 6.168m0 0c-.088-1.119-.096-3.943.578-6.287m-.578 6.287c.43-1.295 1.604-4.212 2.856-5.516m-3.74 44.817c-3.744 2.097-7.37-4.561-8.715-8.153-3.537 2.993-4.42-2.504-2.146-4.158 1.82-1.324 5.594.947 7.254 2.248.986.905 2.888.86 1.992-2.072 0 0 4.02 1.664 5.56.078 1.454-1.495-1.63-5.389-1.63-5.389s3.35.107 3.578-1.495c.229-1.601-3.215-2.491-3.215-2.491m15.136 40.507c6.173.56 18.658-.943 20.598-11.414 1.559-8.412-2.954-17.409-6.908-22.962-.435-.611-.914-1.218-1.384-1.831m-12.306 36.207c27.185-3.563 16.829-24.05 7.04-33.272-5.47-5.151-3.395-9.506-2.291-11.744 0 0-2.282-.041-2.512-1.622-.572-3.945 7.455-4.849 10.214-4.296 0 0-.909-3.609 1.27-4.355 3.501-1.199 5.084 4.389 5.319 6.742 2.124-1.365 4.101-1.878 5.077-.232 2.051 3.461-2.537 7.092-5.087 8.475 3.845 1.249 3.512 3.83 1.145 4.649-5.136 1.776-8.649-1.556-9.763-3.444m4.025-2.162c5.198-1.93 2.686-8.093-1.784-5.231-1.93 1.235-2.696 2.797-2.854 4.282-.119 1.109.145 2.135.613 3.111m1.894 2.892c2.318 2.924 8.413 6.883 14.243-.667 7.289-9.437-4.078-26.252-18.866-20.767-14.79 5.486-11.063 20.704-5.222 24.436m9.845-3.002c-.718-.937-1.414-1.888-1.894-2.892m-48.99 17.027c.642 2.445 3.244 7.196 8.514 6.649.269-.001.865.097 1.099.49m0 0c-.05-.227-.034-.765.435-1.103m-.435 1.103c-.434-1.057-1.867-1.637-2.53-1.795-2.897-1.146-4.534-4.424-4.991-5.92m7.956 6.612c.585-.423 3.626-4.069.237-10.251-1.37.998-3.467 1.657-5.111 2.296-2.936 1.141-6.525 3.255-8.054.429-1.15-2.124.581-4.391 2.35-5.89 1.02-.863 2.285-1.943 1.838-3.201a2.052 2.052 0 0 0-1.207-1.216c.16-.522.661-1.549 1.39-1.485.73.064.65 2.026 1.638 3.034.557.569 1.034.523 1.824.415 1.057-.144 2.32-.187 3.467.032m1.628 15.837c1.058-3.738-.574-7.616-1.522-9.089m-2.199.771c.379.624 1.102 2.054 1.751 4.127m1.75-11.2a5.667 5.667 0 0 0-1.408-.446m0 0c.368-.37 1.334-1.108 2.252-1.104m6.448-6.48c.013.668-.448 1.219-1.03 1.23-.582.011-1.064-.522-1.076-1.189-.013-.668.448-1.219 1.03-1.23.581-.011 1.063.521 1.076 1.189ZM74.43 259.086c-.453 1.689-2.063 2.222-3.752 1.769-1.69-.452-2.818-1.719-2.365-3.408.452-1.689 2.063-2.222 3.752-1.769 1.69.453 2.817 1.719 2.365 3.408ZM18.172 52.934c-.631 1.094-1.751 1.223-2.719.665-.967-.558-1.414-1.593-.783-2.687.632-1.094 1.752-1.224 2.72-.666.966.559 1.414 1.594.782 2.688ZM49.58 5.988c-.948 0-1.452-.679-1.452-1.516 0-.838.504-1.517 1.452-1.517.947 0 1.451.679 1.451 1.517 0 .837-.504 1.516-1.451 1.516ZM182.851 129.101c.365 1.363-.418 2.35-1.623 2.673-1.205.323-2.376-.141-2.741-1.504-.365-1.363.417-2.35 1.622-2.673 1.205-.323 2.376.141 2.742 1.504ZM248.536 156.058c.443 1.656-.526 2.86-2.013 3.258-1.486.399-2.928-.16-3.371-1.815-.444-1.656.525-2.86 2.012-3.258 1.487-.399 2.928.16 3.372 1.815ZM261.676 150.093c1.077-.289 1.86.342 2.12 1.309.259.967-.105 1.905-1.182 2.194-1.077.288-1.86-.342-2.12-1.309-.259-.968.105-1.906 1.182-2.194ZM270.111 275.631c1.077-.289 1.861.342 2.12 1.309.259.967-.104 1.905-1.181 2.194-1.078.288-1.861-.342-2.12-1.309-.26-.968.104-1.906 1.181-2.194ZM198.118 25.91c1.134.305 1.516 1.292 1.244 2.31-.273 1.02-1.099 1.683-2.233 1.38-1.134-.304-1.517-1.292-1.244-2.31.273-1.02 1.098-1.683 2.233-1.38ZM116.135 115.151c1.017-.587 1.986-.159 2.513.754.527.914.413 1.967-.604 2.554-1.017.587-1.986.159-2.513-.754-.527-.913-.413-1.966.604-2.554ZM122.966 13.365c.365 1.362-.417 2.35-1.622 2.673-1.205.322-2.377-.142-2.742-1.504-.365-1.363.418-2.35 1.622-2.673 1.205-.323 2.377.14 2.742 1.504ZM207.128 189.703c-.614-1.065-.179-2.072.762-2.615.941-.543 2.031-.417 2.645.647.615 1.065.179 2.072-.762 2.615-.941.543-2.031.417-2.645-.647ZM159.858 248.49c-.614-1.064-.179-2.072.762-2.615.941-.543 2.031-.417 2.646.647.614 1.065.178 2.072-.762 2.615-.941.543-2.031.417-2.646-.647ZM91.823 205.771c.362-1.351 1.524-1.811 2.719-1.491 1.195.32 1.97 1.299 1.608 2.651-.362 1.351-1.523 1.811-2.718 1.491-1.195-.32-1.971-1.299-1.609-2.651ZM263.778 32.377c-4.089.067-11.958 4.236-10.457 7.775 1.502 3.54 6.301-1.296 8.513-4.155-1.497 3.038-3.7 9.357-.536 10.322 3.163.965 3.731-6.033 3.619-9.652.335 2.301 1.676 6.756 4.357 6.166 3.351-.737-.201-10.188-5.496-10.456Zm0 0c.536-2.57.59-8.19-3.486-10.121M174.03 260.82c-.234.608-.406 2.314.772 4.278 1.472 2.455 2.174 5.891-.07 8.837-2.245 2.945-7.397 4.54-11.6 1.458-4.434-3.252-4.285-8.945-2.021-11.875 2.265-2.93 5.766-3.142 8.518-2.355a7.04 7.04 0 0 0 1.574.268m2.827-.611-.029.02m.029-.02c-.323.325-.847 1.445-.357 3.324.491 1.879.586 3.125.572 3.513m-.244-6.817c-.946.675-3.205 2.773-4.903 5.959m4.903-5.959c-.412.284-1.423.663-2.798.591m0 0c-2.262.489-4.279 1.958-5.005 2.631m-5.653 8.213c-.129-.935-.219-2.856.452-3.062.67-.207 1.397 2.342 1.676 3.643.172-.903.664-2.644 1.257-2.386.593.258.914 2.386 1 3.417 1.171-.193 3.739-.38 4.642.419.903.8-1.3 1.301-2.515 1.451.903.054 2.766.342 2.999 1.064" />
        <path stroke="#000" stroke-linecap="round" stroke-linejoin="round" stroke-width="1.104"
            d="M162.656 276.231c-9.05 8.602-14.062-5.48-18.36-6.857m18.36 6.857c-4.304-2.067-9.667-8.322-18.36-6.857m18.36 6.857c1.19 3.584 6.874 12.104 11.625 12.97m-11.625-12.97c3.361.323 10.2 1.942 9.97 5.803-.298 5.022 1.655 7.167 1.655 7.167m-11.625-12.97c-5.412 10.149 3.806 15.814 11.625 12.97m-29.985-19.827c2.177-1.777 9.089-5.166 15.086-.304M162.657-7.767c-9.051 8.602-14.063-5.48-18.361-6.857m18.361 6.857c-4.304-2.067-9.668-8.322-18.361-6.857m18.361 6.857c1.19 3.584 6.874 12.104 11.624 12.97m-11.624-12.97c3.361.323 10.199 1.942 9.97 5.803-.299 5.022 1.654 7.167 1.654 7.167m-11.624-12.97c-5.413 10.15 3.805 15.814 11.624 12.97m-29.985-19.827c2.177-1.777 7.851-4.618 13.13-1.766M63.565 15.19c3.035-.133 11.546-1.42 21.31-5.502 2.747-1.148 4.977-2.109 6.841-2.906m0 0c6.422-2.745 8.513-3.552 12.468-3.396l-.201 1.671c-.968-.449-4.777-.732-12.267 1.725Zm-16.129 16.67c1.826-.563 6.152-2.463 8.853-5.56m0 0c1.195-2.154 4.365-7.387 7.495-11.076a49.803 49.803 0 0 1-8.18-1.981m.686 13.058c.46 3.096-1.263 6.616-2.183 7.988m-11.53-6.876c1.359-1.002 4.406-3.665 5.724-6.3m-3.624.905c-1.482-.247-4.81-1.07-6.259-2.388M71.305-1.42c1.88 1.49 6.373 4.234 12.45 6.255m0 0c-.842-2.222-3.474-7.466-7.262-10.661M62.535 15.507c1.623-.053 5.546.635 8.255 3.81 3.387 3.969 11.184 10.38 21.388 4.378 10.205-6.003 6.203-16.208-.3-16.808 2.234-4.769 3.642-14.306-8.604-14.306C71.03-7.42 67.81 4.467 66.913 9.714c-.897 5.246-4.378 5.793-4.378 5.793ZM63.565 299.187c3.035-.133 11.546-1.421 21.31-5.503 2.747-1.148 4.977-2.108 6.841-2.906m0 0c6.422-2.745 8.513-3.551 12.468-3.396l-.201 1.671c-.968-.449-4.777-.732-12.267 1.725Zm-16.129 16.67c1.826-.563 6.152-2.462 8.853-5.559m0 0c1.195-2.155 4.365-7.388 7.495-11.077a49.783 49.783 0 0 1-8.18-1.981m.686 13.058c.46 3.097-1.263 6.616-2.183 7.988m-11.53-6.876c1.359-1.002 4.406-3.665 5.724-6.301m-3.624.906c-1.482-.247-4.81-1.07-6.259-2.388m4.736-12.642c1.88 1.491 6.373 4.235 12.45 6.255m0 0c-.842-2.222-3.474-7.465-7.262-10.661m-13.958 21.333c1.623-.053 5.546.635 8.255 3.81 3.387 3.969 11.184 10.38 21.388 4.378 10.205-6.003 6.203-16.207-.3-16.808 2.234-4.769 3.642-14.306-8.604-14.306-12.245 0-15.465 11.886-16.361 17.133-.897 5.247-4.378 5.793-4.378 5.793ZM104.182 80.644c-3.124 6.36-6.08 6.215-8.883 5.61-2.24-.482-3.84.532-4.36 1.1.511-2.673 2.952-8.17 8.627-8.773 2.277-.242 3.953.365 5.783-1.356m3.414-8.112c-.202-.228-.911-.426-2.133.602-1.527 1.284-3.249 7.381-9.296 4.966-2.988-1.194-4.462-.402-4.462-.402s2.766-4.3 5.575-5.976c3.755-2.243 10.144.972 12.192-2.892m4.784-8.46c-.952.562-3.168 1.517-4.414.84-1.557-.844-3.339-5.075-9.851-1.624-2.954 1.565-5.532 1.392-7.46.644.756.329 2.643 1.445 4.144 3.28 1.877 2.295 5.436 6.152 16.276-.88m3.63-5.78c-.51-.047-1.561-.611-1.688-2.493-.16-2.352-2.062-10.478-13.468-7.187.884.025 2.813.534 3.462 2.37.811 2.295.122 8.369 8.822 7.725.543-.019 1.598.177 1.832 1.156m7.199-9.685c-3.257-1.679-1.196-1.763-2.898-7.007-1.363-4.195-7.719-5.33-12.079-1.843 0 0 2.368-.65 4.076 4.2 2.135 6.064 6.299 4.778 7.413 4.65.891-.103 1.987.8 2.423 1.264m-17.984 44.407c1.31 4.225 2.346 9.324-2.395 13.055-.531.475-1.394 1.831-.595 3.448-3.478-2.212-8.173-8.475-1.802-16.975 1.28-1.708 2.319-3.604 2.861-5.668 3.124-11.89 12.985-34.773 33.538-52.041l.045 1.855a101.066 101.066 0 0 0-9.489 9.585c-.198.228-.216.572.016.765.985.818 2.582.627 3.918.352a7.31 7.31 0 0 1 1.479-.157c4.722.002 6.33 4.014 6.543 6.02-1.045-1.217-2.168-1.242-2.598-1.103-5.18 1.352-7.293.587-8.493-1.61-.961-1.759-2.11-2.334-2.46-2.385a108.638 108.638 0 0 0-3.503 4.473c2.083 4.227 4.747 1.31 10.35 2.662 7.97 1.922 7.568 8.925 7.568 8.925-1.654-1.676-3.956-1.321-8.72-.707-7.223.93-8.073-5.935-8.768-7.575-.557-1.312-1.48-1.463-1.823-1.383a111.76 111.76 0 0 0-4.057 6.144c1.139 4.804 2.695-.462 10.573 4.321 6.303 3.827 6.454 8.968 5.742 11.06-1.878-3.861-4.021-2.047-11.279-4.517-5.807-1.975-6.542-6.813-6.017-9.235a113.3 113.3 0 0 0-2.862 5.14c-.499 1.183-1.067 3.255-.595 4.447.535 1.354 4.55-.438 7.944 1.847 6.518 4.389 5.712 10.636 5.712 10.636-1.451-2.35-4.975-2.165-6.923-1.624-5.042.78-8.897-4.237-7.697-7.64.501-1.423-.557-2.614-.776-2.935a103.715 103.715 0 0 0-3.208 7.681c-.017.175-.316 1.272 4.817 4.474 7.612 4.748 5.809 14.498 5.809 14.498s-1.512-2.521-6.068-3.99c-5.627-1.814-5.884-9.402-5.231-13.1a74.17 74.17 0 0 0-1.793 5.932c-.446 1.758-.3 3.592.237 5.325ZM72.027 43.645c-.23 1.683-.63 3.67-1.223 5.824M35.038 78.612c-13.242-.125-21.114-5.697-23.676-9.042 0 0 6.816 5.091 15.294 4.854 2.987-.084 6.987 2.933 8.382 4.188Zm0 0c.939.009 1.905-.01 2.898-.059m0 0c-.773-1.274-3.364-4.24-7.548-5.913-4.183-1.674-9.18-8.6-9.18-8.6s5.706 3.51 11.516 5.603c4.516 1.625 5.059 7.21 5.212 8.91Zm0 0c1.466-.072 2.99-.21 4.574-.421m0 0a59.448 59.448 0 0 0 1.777-.266c.6-.099 1.188-.216 1.764-.35m-3.54.616c-2.486 1.138-8.179 5.242-11.073 12.543 3.272-1.891 10.067-7.048 11.072-12.543Zm3.54-.616c-1.753-3.051-8.232-9.86-16.65-12.987 5.886.55 19.55 2.907 16.65 12.987Zm0 0a26.796 26.796 0 0 0 3.933-1.237m0 0c-1.68 2.326-7.03 8.827-3.302 18.51.363-2.418 1.524-7.848 3.264-10.227 1.741-2.38.75-6.513.038-8.283Zm0 0a26.872 26.872 0 0 0 2.918-1.382m0 0a28.6 28.6 0 0 0 3.509-2.285m-3.509 2.285c-1.563-.579-4.953-2.821-6.006-7.163-1.052-4.341-3.782-5.975-5.015-6.249 3.428.61 11.346 3.239 11.021 13.412Zm3.51-2.285c-.733 4.431-2.644 14.199 4.216 18.392.898-6.78-.946-16.004-4.217-18.392Zm0 0a31.5 31.5 0 0 0 3.51-3.12m0 0c-1.574-2.916-6.201-9.125-12.121-10.638 4.216-.692 12.542.466 12.12 10.638Zm0 0a37.507 37.507 0 0 0 4.063-5.004m0 0c-1.064 4.289-2.165 13.565 6.427 15.909-1.206-.987-2.867-4.322-2.538-8.926.329-4.605-2.678-6.504-3.889-6.983Zm0 0a44.756 44.756 0 0 0 2.414-3.974m0 0c-2.198.406-7.12-.114-9.225-5.442 2.587.53 8.053 2.362 9.225 5.441Zm0 0a50.494 50.494 0 0 0 1.94-4.017m0 0c-.241 2.704-.054 8.802 5.116 10.415-.095-2.448-1.25-7.959-5.116-10.415Zm0 0a54.431 54.431 0 0 0 2.465-7.028m0 0c-.59.913-2.848 2.428-7.15 1.183 1.441 2.136 4.889 4.89 7.15-1.183ZM253.417 70.82c.581-4.847 3.402-12.526 7.877-10.833 4.476 1.692-1.434 8.986-5.654 12.229m-6.06 5.249c-4.884 3.49-9.464 9.651-5.443 12.24 4.333 2.788 6.709-5.2 7.764-11.012m4.082-6.248c3.592-3.06 11.073-6.643 12.977-2.202 1.903 4.44-7.045 5.58-12.418 4.81m-7.832-.543c-5.171-.752-12.719.113-12.279 4.97.44 4.857 8.716 1.015 13.022-2.413m7.166-1.6c4.585.378 12.777 3.09 10.993 7.678-1.783 4.588-9.586-1.07-12.425-5.385m-5.017-6.018c-2.581-3.95-8.841-9.05-11.922-5.21-3.082 3.838 5.535 7.127 10.651 7.598m6.053 3.984c4.684 5.37 6.448 11.241 2.022 13.289-4.426 2.047-6.653-5.665-4.607-12.654m.737-7.966c.472-4.352.217-12.912-4.581-12.34-4.798.572-.638 9.011 2.042 13.16m4.621 5.809c-1.693 1.628-3.572 1.6-5.133-.076-1.561-1.677-1.485-3.585.208-5.214 1.693-1.628 3.571-1.6 5.132.077 1.562 1.677 1.486 3.584-.207 5.213ZM261.065 138.511c-1.42-.737-3.24-1.939-5.208-3.606m-14.83-26.896c2.441 6.228 6.503 9.699 10.307 12.298m-10.307-12.298c-1.199 4.296-1.969 7.979-2.387 11.132m2.387-11.132a43.656 43.656 0 0 0 5.186 15.172m9.644 11.724c2.38-.856 6.528-3.618 4.078-7.818-1.503-2.578-4.932-4.274-8.601-6.78m4.523 14.598a41.953 41.953 0 0 1-4.294-4.217m4.294 4.217c-2.498 1.209-20.47 8.75-17.217-15.764m12.694 1.166c-.71 1.502-1.658 5.681.229 10.381m0 0a44.155 44.155 0 0 1-5.35-7.507m-7.573-4.04c1.073 1.33 4.09 4 7.573 4.04M20.075 251.725s-3.292-.295-4.036-.388c-1.41-.224-1.148-1.718.526-1.439 1.34.223 3.51 1.827 3.51 1.827Zm0 0c-1.372 3.604-2.525 11.802 7.463 12.974 9.988 1.171 12.857 4.161 12.764 5.44m-20.227-18.414c6.417-9.374 14.973-4.417 17.926 0-5.232-1.674-8.37 4.394-3.697 6.905 3.738 2.009 6.138-.767 6.138-3.208 3.627 5.859 1.418 12.253-.14 14.717m-20.227-18.414c6.166 1.397 18.845 7.035 20.227 18.414" />
        <path fill="#000"
            d="M201.512 75.051c-.004.374-.237.617-.52.614-.283-.003-.511-.252-.506-.625.004-.373.236-.586.519-.583.284.003.511.22.507.594ZM206.219 62.521c-.267.261-.603.269-.802.066-.198-.202-.182-.539.084-.8.267-.26.582-.247.78-.044.198.202.205.517-.062.778ZM218.768 58.79c-.372.035-.639-.17-.665-.452-.027-.282.196-.534.568-.57.371-.035.607.173.634.456.027.282-.165.53-.537.566Z" />
        <path stroke="#000" stroke-linecap="round" stroke-linejoin="round" stroke-width="1.104"
            d="M215.728 85.36c-.4-3.148.122-8.079-8.044-9.477m8.044 9.477c.441-5.99 2.616-18.438 7.791-20.322.065 5.693-1.402 17.727-7.791 20.322Zm0 0c-1.564.3-5.486.091-8.662-3.15 2.452-1.073 7.618-1.949 8.662 3.131 0 0 2.4-11.641-5.006-18.648m8.927-1.828c.122.906.331 2.829.015 4.175m-12.096 6.86c-.323 2.395-2.212 3.439-4.329 3.153-2.118-.285-3.663-1.792-3.34-4.187.322-2.395 2.211-3.44 4.329-3.154 2.118.285 3.663 1.792 3.34 4.187Zm3.199-9.44c-1.531 1.87-3.687 1.768-5.34.414s-2.178-3.447-.647-5.317c1.532-1.87 3.687-1.768 5.34-.413 1.654 1.354 2.178 3.447.647 5.317Zm-9.255 8.591c-.004.374-.237.617-.52.614-.283-.003-.511-.252-.506-.625.004-.373.236-.586.519-.583.284.003.511.22.507.594Zm4.707-12.53c-.267.261-.603.269-.802.066-.198-.202-.182-.539.084-.8.267-.26.582-.247.78-.044.198.202.205.517-.062.778Zm13.611 2.192c-2.366.492-3.979-.942-4.414-3.035-.435-2.092.472-4.05 2.838-4.542s3.979.942 4.414 3.034c.435 2.093-.472 4.05-2.838 4.543Zm-1.062-5.923c-.372.035-.639-.17-.665-.452-.027-.282.196-.534.568-.57.371-.035.607.173.634.456.027.282-.165.53-.537.566ZM192.203 257.811c-1.265.954-.379 3.202.088 4.061-1.638-.665-3.634-.577-3.77.785-.221 1.569 1.6 2.514 2.538 2.79-1.629.688-2.583 2.18-1.716 3.24.954 1.265 3.023.453 3.882-.015-.665 1.639-.398 3.561.964 3.697 1.569.221 2.333-2.012 2.609-2.95.643 1.774 2.047 2.92 3.393 2.227 1.513-.779 1.024-2.639-.326-4.227 1.709.8 3.625.814 4.087-.628.519-1.62-1.129-2.511-3.207-2.679 1.774-.642 3.126-2.067 2.433-3.413-.779-1.513-2.525-.738-4.113.613.8-1.709.7-3.912-.741-4.374-1.621-.519-2.117 1.298-2.285 3.375-.689-1.629-2.777-3.369-3.836-2.502Z" />
    </g>
    <defs>
        <clipPath id="a">
            <path fill="#fff" d="M0 0h284v284H0z" />
        </clipPath>
    </defs>
</svg>