<svg xmlns="http://www.w3.org/2000/svg" viewBox="0 0 284 284" width="284" height="284" fill="none">
    <g clip-path="url(#a)">
        <path stroke="#000" stroke-linecap="round" stroke-linejoin="round" stroke-width="1.104"
            d="M79.344 251.767c11.951 2.066 18.672-38.574 11.88-46.457-5.435-6.307-20.848-10.708-27.916-12.602-7.068-1.893-22.914-5.868-30.774-3.124-9.088 3.174-22.177 36.406-15.076 44.682m61.886 17.501c-8.428-1.456-.87-12.267-7.148-20.157-1.072-1.347-3.023-2.403-5.442-3.311m12.59 23.468c3.978-4.786 7.028-16.18-12.59-23.468m-17.036-38.658c-4.514.271-4.957 11.997-3.053 15.294 1.523 2.638 7.55 4.357 11.077 5.302 3.526.945 10.902 2.817 13.54 1.294 3.296-1.904 8.537-12.325 4.762-14.816m-44.223-7.009c1.089-2.644 6.106-6.355 14.346-4.038.71.2 1.358 1.016.885 3.459m44.544 16.595c.379-2.833-2.11-8.556-10.405-10.67-.716-.182-1.684.201-2.496 2.554m-24.812 22.259s1.822 3.037 4.967 1.358m-41.392 13.043a5.09 5.09 0 0 0 2.136 1.491c8.027 2.952 6.887-10.189 16.269-13.883 1.39-.547 3.242-.573 5.372-.294m-23.777 12.686c.444-6.129 5.82-17.247 23.777-12.686m0 0c3.886.508 8.695 2.033 13.302 3.267 4.221 1.131 8.71 2.136 12.217 3.452m-17.553-12.992c-.618 2.308-2.664 3.674-4.989 3.05-2.325-.623-3.48-2.998-2.862-5.306.619-2.308 2.776-3.674 5.101-3.051 2.325.624 3.369 2.999 2.75 5.307Zm15.652 4.194c-.619 2.307.47 4.513 2.795 5.136 2.326.623 4.514-.857 5.132-3.165.618-2.307-.567-4.569-2.892-5.192-2.326-.623-4.417.913-5.035 3.221Zm22.98-11.412c0 1.549-1.024 2.742-2.572 2.742-1.549 0-2.572-1.255-2.572-2.803 0-1.549 1.023-2.804 2.572-2.804 1.548 0 2.572 1.317 2.572 2.865Zm-3.022 11.281c0 1.548-1.025 2.742-2.573 2.742-1.549 0-2.572-1.255-2.572-2.804 0-1.548 1.023-2.803 2.572-2.803 1.548 0 2.573 1.317 2.573 2.865Zm6.789-3.766c-.222 1.533-1.407 2.567-2.94 2.345-1.532-.222-2.364-1.611-2.142-3.144.222-1.532 1.414-2.628 2.947-2.406 1.532.222 2.357 1.673 2.135 3.205Zm-10.629-2.837c-.587 1.433-1.987 2.148-3.42 1.561-1.433-.587-1.903-2.137-1.316-3.57.587-1.432 2.01-2.206 3.443-1.618 1.433.587 1.88 2.194 1.293 3.627Zm-51.974-12.441c-.298-1.008.352-3.347 1.098-3.985.745-.638 3.225.804 3.225.804s1.145 1.755.9 2.336c-.328.78-1.95 1.692-1.95 1.692s-2.974.16-3.273-.847Zm12.874 3.449c.762-.723 1.368-3.074 1.042-3.999-.327-.926-3.195-.916-3.195-.916s-1.87.946-1.948 1.572c-.105.84.842 2.44.842 2.44s2.497 1.626 3.26.903Zm-5.64 3.257c-1.008.298-3.347-.352-3.985-1.098-.638-.745.805-3.225.805-3.225s1.754-1.145 2.335-.9c.78.328 1.692 1.949 1.692 1.949s.16 2.975-.847 3.274Zm3.45-12.874c-.724-.763-3.075-1.369-4-1.042-.925.327-.916 3.195-.916 3.195s.946 1.869 1.572 1.948c.84.105 2.44-.843 2.44-.843s1.627-2.496.903-3.258ZM77.493 279.963c-3.965-3.677-11.202-11.377-8.43-12.763 1.578-.789 4.98.866 8.332 3.039m.098 9.724c-4.278-4.208-13.296-2.46-4.914 6.83 8.382 9.291 15.27 5.829 15.27 5.829m-10.356-12.659c3.76 3.795 10.464 11.159 10.356 12.659m-10.356-12.659c3.055-2.371 8.133-5.93 13.393-7.26m-6.775 2.533c-1.664-1.404-4.175-3.349-6.716-4.997m19.954 2.196c2.236 1.118 7.391 7.921 3.423 12.224m-3.423-12.224c-2.1-.449-4.297-.279-6.463.268m6.463-.268c-1.955-2.074-6.998-5.684-11.525-3.53m14.948 15.754c-2.305.466-8.117 2.71-12.923 7.963m12.923-7.963c2.654.675 8.466 3.101 10.478 7.404m-23.4.559c-.047 3.493.726 10.967 4.19 12.923m-1.154-32.842c-1.028-1.278-2.846-2.906-5.062-3.798m-8.429 1.334c2.94-2.409 5.936-2.338 8.43-1.334m6.215 36.64c4.331 2.445 21.725-8.103 19.21-13.482m-19.21 13.482c-3.967-3.688 16.975-16.974 19.21-13.482M77.493-4.037c-3.965-3.677-11.202-11.377-8.43-12.763 1.578-.789 4.98.866 8.332 3.04m.098 9.723c-4.278-4.208-13.296-2.46-4.914 6.83 1.526 1.692 3.003 2.96 4.397 3.904m.517-10.734c3.055-2.371 8.133-5.93 13.393-7.26m-13.393 7.26A147.047 147.047 0 0 1 81.875.6m2.236-9.365c-1.664-1.404-4.175-3.35-6.716-4.997m19.954 2.196c2.236 1.117 7.391 7.921 3.423 12.224m-3.423-12.224c-2.1-.449-4.297-.28-6.463.268m6.463-.268c-1.955-2.074-6.998-5.684-11.525-3.53M100.772.659c-2.305.466-8.117 2.71-12.923 7.963M100.772.66c2.654.675 8.466 3.101 10.478 7.404m-23.4.56c-.047 3.492.726 10.966 4.19 12.922M87.85 8.622c.07-1-2.883-4.605-5.975-8.021m5.974 8.021s-4.608 2.316-10.873-1.925m13.91-17.994c-1.028-1.278-2.846-2.906-5.062-3.798m-8.429 1.334c2.94-2.41 5.936-2.338 8.43-1.334m6.215 36.64c4.331 2.444 21.725-8.103 19.21-13.482M92.04 21.545c-3.967-3.689 16.975-16.974 19.21-13.482M81.875.601c-1.87 1.17-5.469 4.03-4.899 6.096M170.835 82.615c.184-2.161 4.381-10.788 4.381-10.788m-4.381 10.788c-.185 2.162 26.366 20.128 28.838 19.581m-28.838-19.58c2.983.717 9.763 1.998 13.019 1.376m-8.638-12.165s4.117-3.172 7.077-4.643c2.961-1.471 10.478-3.263 13.966-3.662 3.488-.399 8.988-.227 8.988-.227m-30.031 8.532s5.332.617 8.732.326m21.299-8.858s-4.927 3.614-8.449 5.254m8.449-5.254s7.686 5.293 8.811 7.254m-17.26-2c-3.523 1.64-9.45 3.313-12.85 3.604m12.85-3.604c3.705 3.954 6.338 8.554 7.192 10.36m-20.042-6.756c-.136 3.557-.344 10.904-.094 11.84m30.204-13.444c1.125 1.96-11.912 31.101-14.385 31.647m14.385-31.647c-.097.588-7.835 7.345-10.068 8.36m-4.317 23.287c-1.312-.164-15.506-17.035-15.819-18.204m15.819 18.204c1.935-6.44 3.684-18.208 4.317-23.286m-20.136 5.082 20.136-5.082M160.371 70.33c4.888-1.049 3.255-8.652 3.255-8.652 1.05 4.888 3.805 7.136 7.064 6.437-5.431 1.166-3.915 8.226-3.915 8.226-1.516-7.06-6.404-6.01-6.404-6.01ZM42.398 269.107c4.888-1.05 3.255-8.653 3.255-8.653 1.05 4.888 3.805 7.137 7.064 6.437-5.431 1.166-3.915 8.226-3.915 8.226-1.516-7.06-6.404-6.01-6.404-6.01ZM216.111 84.562c3.437-.738 2.289-6.085 2.289-6.085.738 3.438 2.676 5.019 4.967 4.527-3.819.82-2.753 5.785-2.753 5.785-1.066-4.965-4.503-4.227-4.503-4.227ZM133.923 30.296c-.21-.161-.368-3.125-.368-3.125s-2.684.223-2.987.046c-.302-.177-.438-3.054-.137-3.263.3-.208 2.803-.046 2.803-.046s-.064-2.35.046-2.573m.643 8.96c.21.162 14.153-.275 14.153-.275s.057 2.616.322 2.849c.264.234 2.803.046 2.803.046s-.061 15.244.551 15.44c.612.196 2.574-.138 2.574-.138s-.173 2.928.137 3.125c.311.197 2.777-.019 3.079-.23.303-.212 0-2.849 0-2.849s2.627.175 2.849-.046c.223-.221.684-14.553.322-14.797-.362-.243-3.263-.091-3.263-.091l-.321-3.814h-2.436s.039-2.288-.092-2.436c-.131-.148-2.665-.046-2.665-.046l-.23-2.849m-17.783 6.112c-6.831.898-15.136 6.652-18.435 9.417 1.078-4.024 4.817-7.679 4.817-7.679-8.588 1.149-15.886 9.716-15.886 9.716 5.184-12.135 20.936-19.078 28.861-20.415m18.426 2.85h-3.262s.092-1.87.046-2.712c-.046-.842-15.101-.36-15.21-.138m18.426 2.85s5.053-.24 5.377.091c.323.33.046 5.285.046 5.285m-11.58.689.138 2.803s-2.658-.017-2.941.23c-.284.246-.046 2.527-.046 2.527s-2.895.09-3.217.322c-.322.231-.092 2.619-.092 2.619s-2.366-.246-2.665 0c-.299.246-.092 3.079-.092 3.079s-2.43-.194-2.803.092c-.373.285-.23 2.94-.23 2.94s-2.761-.18-3.078.092c-.318.274-.092 3.171-.092 3.171s-2.516-.179-2.849.046c-.334.225 0 2.85 0 2.85s-2.822-.233-3.217.091-.046 2.849-.046 2.849-2.202-.366-2.573.092c-.372.458-.299 4.78.184 5.514.482.734 5.754.574 6.203 0 .449-.574.046-2.343.046-2.343s2.42.282 2.757-.092c.337-.374-.276-2.987-.276-2.987s2.735.144 3.079-.23c.345-.374-.23-2.849-.23-2.849s2.801.16 3.079-.184c.279-.344.184-2.665.184-2.665s2.495.39 2.849.092c.354-.298-.046-3.033-.046-3.033s2.721.256 2.987-.092c.266-.347-.184-2.711-.184-2.711s3.085.158 3.401-.276c.315-.434-.322-2.895-.322-2.895s3.04.228 3.263-.138c.222-.366-.138-3.078-.138-3.078l2.544.02M246.255 203.164s-22.844 22.738-40.098 40.343m-18.866 20.187c1.071.775 19.278 1.3 20.132.986.854-.315 50.66-50.802 50.66-50.802m-70.792 49.816s-4.956-7.172-4.447-7.745c.509-.573 6.046 1.655 6.046 1.655s-.7-2.355-.191-2.737c.509-.382 5.628.847 5.628.847m-7.036 7.98c-.239-.172 2.552-3.269 7.036-7.98m-6.982 7.933s16.792-3.77 17.646-4.084m8.678-8.472c8.333-8.316 20.974-21.075 30.208-30.412m10.099-10.221c-2.006 2.032-5.658 5.731-10.099 10.221m12.799-19.018s14.917-14.894 15.45-14.69c.533.204 2.541 1.826 2.651 2.418.11.592-15.166 14.784-15.166 14.784m-52.429 60.536s-4.191-10.289-3.861-10.531c.329-.241 4.506 1.445 4.506 1.445s-2.372-4.415-4.724-8.993m14.332 8.259s-6.026-6.199-11.278-11.382m12.794-12.955s-2.941-5.627-2.492-5.97c.449-.342 4.528.703 4.528.703s-10.793-20.013-9.905-20.481c.889-.468 16.499 13.601 16.499 13.601s-.168-4.494.356-4.906c.524-.411 4.637 3.24 4.637 3.24m37.167-27.64c.526-.176 3.032 1.948 3.039 2.522m-66.623 51.886c-3.889-3.838-7.354-7.118-7.634-6.913-.338.247 2.11 5.231 4.58 10.036m0 0a1066.324 1066.324 0 0 0-8.776 9.084m54.238-56.04c1.241-1.124 2.529-2.14 2.961-2.165.905-.051 12.672 10.94 12.643 11.616-.015.339-1.245 1.64-2.535 2.848m-13.069-12.299c-1.359 1.231-2.663 2.592-2.724 2.92-.051.27 2.244 2.475 4.914 4.896m-2.19-7.816c3.34 3.113 10.631 9.932 13.069 12.299m0 0c-1.277 1.196-2.613 2.301-2.882 2.29-.307-.014-4.477-3.582-7.997-6.773m0 0-8.042 8.198 1.164 4.991M17.627 271.671c-.877.506-5.694 19.405-5.157 20.785m5.157-20.785c.878-.507 11.696-8.898 12.654-8.476m-12.654 8.476 4.939 7.978M12.47 292.456c.537 1.38 7.409 12.945 8.352 13.115m-8.352-13.115 8.101-5.474m.251 18.589c.943.17 10.382-7.684 11.034-8.58m-11.034 8.58 2.196-13.601m8.838 5.021c.652-.897 5.334-18.678 5.383-20.395m-5.383 20.395-4.42-7.932m9.803-12.463c.048-1.718-6-12.98-6.958-13.401m6.958 13.401-7.667 5.049m.71-18.45-3.132 13.526m2.422 4.924c.182.316-1.72 7.08-2.136 7.414m2.136-7.414c-.183-.316-2.047-4.883-2.422-4.924m.287 12.338c-.417.334-4.094 3.028-4.42 2.911m0 0c-.324-.117-2.404-4.591-2.446-4.988m0 0c-.042-.398 1.7-6.789 1.995-7.333m0 0c.294-.545 4.21-2.969 4.584-2.928M17.627-12.302c-.877.506-5.694 19.405-5.157 20.785m5.157-20.785c.878-.507 11.696-8.897 12.654-8.476m-12.654 8.476 4.939 7.978M12.47 8.483c.537 1.38 7.409 12.945 8.352 13.115M12.47 8.483l8.101-5.474m.251 18.59c.943.17 10.382-7.684 11.034-8.58m-11.034 8.58 2.196-13.602m8.838 5.021c.652-.896 5.334-18.677 5.383-20.395m-5.383 20.395-4.42-7.932M37.24-7.377c.048-1.718-6-12.98-6.958-13.4m6.958 13.4-7.667 5.05m.71-18.45L27.15-7.253m2.422 4.924c.182.316-1.72 7.08-2.136 7.414m2.136-7.414c-.183-.316-2.047-4.883-2.422-4.924m.287 12.338c-.417.334-4.094 3.028-4.42 2.911m0 0c-.324-.117-2.404-4.59-2.446-4.988m0 0c-.042-.397 1.7-6.788 1.995-7.333m0 0c.294-.544 4.21-2.969 4.584-2.928M36.904 88.145c3.765 3.151 17.712-7.311 31.152-23.369 13.44-16.057 21.283-31.628 17.518-34.78-2.74-2.293-10.878 2.628-20.287 11.67 0 0 4.636-2.123 6.58-3.653 1.946-1.53 4.916-3.13 3.123 3.065 1.46-3.227 5.395-8.434 6.761-7.752 1.366.682-.747 4.041-1.834 5.196 0 0 4.5-3.47 2.934.446-1.565 3.917-8.893 14.999-16.644 24.26-5.529 6.605-11.035 12.306-15.73 16.452l3.865-9.368c-3.536 4.765-11.177 14.024-13.45 12.94-2.272-1.084 2.314-6.157 4.892-8.559-1.59.63-4.526 1.27-3.556-1.196 1.43-2.384 2.5-7.24 2.5-7.24-7.182 10.792-10.553 19.604-7.824 21.888Z" />
        <path stroke="#000" stroke-linecap="round" stroke-linejoin="round" stroke-width="1.104"
            d="M33.834 37.013c1.447-.967 22.032 3.458 22.844 4.738.812 1.28-3.452 22.021-4.738 22.843m-18.106-27.58c-1.447.967-5.6 21.339-4.737 22.843.862 1.503 21.557 5.56 22.843 4.737m-18.106-27.58c.564-1.065 7.122-2.44 10.33-2.994 1.291-.76 18.758 4.057 19.392 5.196.635 1.14-3.849 18.211-5.196 19.392-1.346 1.182-4.916 5.257-6.42 5.986m-8.605-16.59s-2.173-4.188-4.77-2.235c-2.597 1.954.268 9.84 2.844 10.068 2.576.227 8.138-3.68 7.312-6.974-.826-3.294-5.386-.86-5.386-.86Z" />
        <path fill="#000"
            d="M212.16 164.966c-.258-.961.171-2.028 1.249-2.317 1.078-.289 1.982.421 2.239 1.382.258.961-.17 2.027-1.247 2.316-1.079.289-1.984-.42-2.241-1.381Zm1.326-1.975c-.563.151-.919.648-.768 1.211.151.562.707.815 1.27.665.563-.151.919-.648.768-1.211-.151-.563-.707-.816-1.27-.665Z" />
        <path fill="#000"
            d="m212.16 164.966-.381.102.381-.102Zm1.249-2.317-.102-.381.102.381Zm2.239 1.382.381-.102-.381.102Zm-1.247 2.316.102.381-.102-.381Zm-.915-3.356-.102-.381.102.381Zm-.768 1.211-.381.102.381-.102Zm1.27.665.102.381-.102-.381Zm.768-1.211.381-.102-.381.102Zm-2.596 1.31.381-.102c-.214-.798.147-1.613.97-1.834l-.102-.381-.102-.381c-1.332.357-1.829 1.675-1.528 2.8l.381-.102Zm1.249-2.317.102.381c.824-.221 1.542.305 1.756 1.103l.381-.102.381-.102c-.301-1.124-1.389-2.018-2.722-1.661l.102.381Zm2.239 1.382-.381.102c.214.798-.145 1.612-.969 1.833l.103.381.102.381c1.332-.358 1.827-1.675 1.526-2.799l-.381.102Zm-1.247 2.316-.102-.381c-.825.221-1.544-.305-1.758-1.102l-.381.102-.381.102c.301 1.125 1.391 2.017 2.724 1.66l-.102-.381Zm-.915-3.356-.102-.381c-.73.196-1.265.879-1.047 1.694l.381-.102.381-.102c-.084-.312.093-.622.489-.728l-.102-.381Zm-.768 1.211-.381.102c.218.813 1.023 1.139 1.753.944l-.102-.381-.102-.382c-.395.106-.704-.074-.787-.385l-.381.102Zm1.27.665.102.381c.73-.196 1.265-.88 1.047-1.694l-.381.102-.381.102c.084.312-.093.621-.489.728l.102.381Zm.768-1.211.381-.102c-.218-.814-1.023-1.139-1.753-.944l.102.381.102.381c.395-.106.704.074.787.386l.381-.102Z" />
        <path stroke="#000" stroke-linecap="round" stroke-linejoin="round" stroke-width="1.104"
            d="M208.352 168.295c-4.458-8.369 6.679-14.956 11.553-8.121.232.324.369.714.423 1.149m-9.172 9.639c4.145.999 9.625-5.959 9.172-9.639m0 0c1.355.031 4.383 1.431 5.645 6.784.834 3.541-.26 6.005-2.276 7.442m-13.68-2.882c1.077 1.658 3.32 3.881 6.82 4.314 2.542.314 5.066-.152 6.86-1.432m0 0c.396 1.359.119 4.89-4.149 8.143-1.512 1.152-3.401 1.565-5.317 1.381m0 0c-4.844-.465-9.862-4.744-9.407-10.532m9.407 10.532c-1.102 1.76-4.882 4.359-11.186.672-7.88-4.607-3.337-10.661-1.353-10.971m.223-1.721c-.669-.669-.798-1.71-.083-2.425.612-.634 1.591-.176 1.591-.176-.054-.492.321-1.057.758-1.309.667-.416 1.411.183 1.411.183-.193-.756.278-1.526.971-1.712.977-.262 1.814.371 2.059 1.285.027.101.046.203.058.304m.272-.017c-.896.24-1.299 1.127-1.059 2.024.241.897 1.033 1.463 1.929 1.223.897-.24 1.3-1.127 1.059-2.024-.24-.896-1.032-1.463-1.929-1.223Zm-3.015 2.374c-.804.465-.963 1.425-.499 2.229.464.804 1.376 1.147 2.18.683.804-.465.963-1.425.499-2.229-.464-.804-1.376-1.147-2.18-.683Zm-2.577.728c-.928 0-1.546.753-1.546 1.681s.618 1.681 1.546 1.681c.929 0 1.547-.753 1.547-1.681s-.618-1.681-1.547-1.681ZM227.069 271.819c1.572-1.465 10.178.526 14.284 1.705 2.693-4.035 8.471-11.94 10.04-11.284 1.57.656 3.079 10.004 3.637 14.595 4.547 1.002 13.658 3.601 13.729 5.978.07 2.378-8.643 5.704-13.191 7.197.502 4.655.598 14.406-1.581 15.143-2.179.737-8.525-6.765-11.427-10.609-4.095 2.008-12.7 5.63-14.353 4.055-1.654-1.575 3.251-10.371 5.91-14.572-3.005-3.459-8.62-10.742-7.048-12.208ZM227.069-12.179c1.572-1.465 10.178.526 14.284 1.705 2.693-4.035 8.471-11.94 10.04-11.284 1.57.656 3.079 10.003 3.637 14.595 4.547 1.002 13.658 3.6 13.729 5.978.07 2.378-8.643 5.703-13.191 7.197.502 4.655.598 14.406-1.581 15.143-2.179.737-8.525-6.765-11.427-10.609-4.095 2.008-12.7 5.63-14.353 4.055-1.654-1.575 3.251-10.371 5.91-14.572-3.005-3.459-8.62-10.742-7.048-12.208ZM229.934 45.87s-7.088-5.783-6.99-6.549c.097-.766 6.575-7.254 6.575-7.254m.415 13.803 7.299 6.838m-7.299-6.838 6.969-7.074m-6.969 7.074-6.439 6.537 7.671 6.669 13.136-13.538-7.399-6.742m-7.384-6.729s5.121-6.693 6.059-6.684c.938.009 7.722 6.919 7.722 6.919l-6.397 6.494m-7.384-6.729 7.384 6.729" />
        <path stroke="#000" stroke-linecap="round" stroke-linejoin="round" stroke-width="1.104"
            d="m230.75 169.217 13.017-16.173-18.539 5.917s3.303-12.6 1.933-14.254c-1.369-1.655-14.827 8.567-14.827 8.567s-3.494-4.136-4.778-3.954c-1.284.181-4.119 8.567-4.119 8.567s-16.417-4.586-17.47-2.809c-1.052 1.777 10.221 16.648 10.221 16.648s-8.652 4.005-8.391 5.923c.262 1.917 8.061 6.928 8.061 6.928s-4.289 12.889-2.471 14.004c1.818 1.115 18.575-7.592 18.575-7.592s3.544 4.517 4.684 4.444c1.14-.074 2.402-6.366 2.402-6.366s14.413 7.579 16.351 6.219c1.938-1.36-6.919-17.629-6.919-17.629s16.136-.531 16.804-1.812c.669-1.281-14.534-6.628-14.534-6.628ZM263.095 153.03c1.232 4.597-1.781 9.512-6.797 10.856-5.016 1.344-10.109-1.399-11.341-5.996m18.138-4.86c.46 1.719-3.2 4.12-8.216 5.464-5.016 1.344-9.462 1.115-9.922-.604m18.138-4.86c-.461-1.719-4.943-2.085-9.959-.741-5.016 1.344-8.64 3.882-8.179 5.601m-.982-10.506c.347-5.133 4.836-9.13 10.017-8.78 5.181.35 9.092 4.914 8.745 10.048m-18.762-1.268c.13-1.919 4.377-3.119 9.558-2.769 5.181.35 9.334 2.118 9.204 4.037m-18.762-1.268c-.13 1.92 3.907 3.833 9.088 4.183 5.181.35 9.545-.995 9.674-2.915" />
        <path fill="#000"
            d="M134.865 249.214c.415.647 1.118.937 1.568.647.451-.29.48-1.049.065-1.696-.416-.647-1.118-.936-1.569-.646-.451.289-.48 1.048-.064 1.695Z" />
        <path stroke="#000" stroke-linecap="round" stroke-linejoin="round" stroke-width="1.104"
            d="M126.673 247.142c-1.139.374-1.954.764-2.337 1.15-2.822 2.845-3.501 26.617.963 30.677 4.465 4.06 29.592 2.128 33.784.45 4.192-1.677 4.126-29.03.099-32.535-.449-.358-1.03-.669-1.72-.935m-20.932-.717a96.982 96.982 0 0 1 2.561-.266m22.631 26.309-8.509-16.879m0 0s-5.987-5.289-13.98-5.497m13.98 5.497c2.048 4.089-14.831 18.831-20.118 14.017m-.561-15.281s-1.767 7.768.561 15.281m0 0 14.076 12.722m-13.165-38.88c.865 1.653-4.569 6.993-7.081 5.055m18.91 2.92c2.87 2.851-9.219 14.268-13.929 10.742m2.038-18.918c2.184 2.68 6.461 8.394 6.093 9.815-.461 1.776-3.453 3.733-4.494 3.48-1.04-.253-7.815-6.587-8.68-8.24-.865-1.653 4.569-6.993 7.081-5.055Zm.921 7.16c.415.647 1.118.937 1.568.647.451-.29.48-1.049.065-1.696-.416-.647-1.118-.936-1.569-.646-.451.289-.48 1.048-.064 1.695Zm9.186 22.772c2.242-.93 7.432-3.954 10.254-8.613l4.347 7.218c-.656 1.778-3.297 5.726-8.613 7.301l-5.988-5.906ZM190.402 40.86c-12.564-12.732-9.19-29.195-7.8-33.637 1.39-4.441.004-8.492-.767-10.27-1.25.61-1.519-1.599-1.158-2.98.712-1.477 6.418-3.006 7.881-2.09 1.118 1.03 1.954 2.489.897 3.028m.947 45.95c1.059.34 2.457.37 3.958.19m-3.958-.19c-3.115 2.004-5.494 2.952-6.297 2.012-2.643-3.094-1.748-10.214-.971-13.387M194.36 41.05c-1.349-5.434-.632-9.26.765-10.45 2.078-.454 5.109 5.117 5.92 8.465l-.016.084m-6.669 1.901.005.02s3.256 2.693 4.656 2.146c1.273-.498 1.904-3.521 2.008-4.067m0 0c1.335-.612 2.408-1.291 2.96-1.93m0 0c4.515-17.31-6.639-29.88-10.064-33.031-3.424-3.151-4.248-7.352-4.47-9.278m14.534 42.309c3.7.178 6.36-.224 6.585-1.439.742-4.001-3.712-9.703-5.972-12.062M189.455-5.09c-.92.462-2.15-.948-2.15-.948s.108 1.812-.725 2.115c-.833.303-1.957-1.43-1.957-1.43s.098 2.16-.898 2.212c-.997.051-1.223-1.842-1.223-1.842s-.152 1.892-.963 2.03m3.156 10.618s.801-2.674 1.509-2.479c.885.245 1.277 7.817-1.082 7.278-1.471-.337-.874-2.9-.874-2.9m6.499 23.579c-.526.525-1.376.394-1.981-.212-.397-.397-.59-.899-.528-1.346.033-.234.136-.453.317-.634.525-.526 1.375-.394 1.98.211.424.424.616.967.512 1.436a1.1 1.1 0 0 1-.3.545Z" />
        <path stroke="#000" stroke-linecap="round" stroke-linejoin="round" stroke-width="1.104"
            d="M188.077 17.721c-3.477 4.763-1.408 8.5.468 7.918 1.5-.465.789-3.944-.468-7.918ZM190.402 324.864c-12.564-12.732-9.19-29.196-7.8-33.637 1.39-4.441.004-8.492-.767-10.27-1.25.61-1.519-1.599-1.158-2.981.712-1.476 6.418-3.005 7.881-2.09 1.118 1.03 1.954 2.489.897 3.029m.947 45.949c1.059.341 2.457.372 3.958.191m-3.958-.191c-3.115 2.005-5.494 2.953-6.297 2.013-2.643-3.094-1.748-10.214-.971-13.387m11.226 11.565c-1.349-5.434-.632-9.261.765-10.451 2.078-.453 5.109 5.118 5.92 8.466l-.016.084m-6.669 1.901.005.02s3.256 2.693 4.656 2.146c1.273-.498 1.904-3.521 2.008-4.067m0 0c1.335-.612 2.408-1.292 2.96-1.93m0 0c4.515-17.309-6.639-29.88-10.064-33.031-3.424-3.151-4.248-7.352-4.47-9.278m14.534 42.309c3.7.178 6.36-.224 6.585-1.439.742-4.001-3.712-9.703-5.972-12.062m-15.147-28.808c-.92.462-2.15-.949-2.15-.949s.108 1.813-.725 2.116c-.833.303-1.957-1.43-1.957-1.43s.098 2.16-.898 2.212c-.997.051-1.223-1.843-1.223-1.843s-.152 1.893-.963 2.031m3.156 10.618s.801-2.674 1.509-2.479c.885.245 1.277 7.817-1.082 7.278-1.471-.337-.874-2.901-.874-2.901m6.499 23.58c-.526.525-1.376.394-1.981-.212-.397-.397-.59-.899-.528-1.346.033-.234.136-.453.317-.634.525-.526 1.375-.394 1.98.211.424.424.616.967.512 1.435a1.102 1.102 0 0 1-.3.546ZM73.24 108.368c1.25-12.51 11.398-11.711 15.86-10.803 17.953 3.25 56.743 10.166 68.288 11.831 11.545 1.666 12.938 8.228 12.192 11.3-.705 4.871-2.617 16.241-4.623 22.762-2.006 6.521-10.836 6.444-15 5.591l-67.538-11.88c-10.38-1.156-11.893-8.715-11.352-12.35l2.173-16.451Z" />
        <path stroke="#000" stroke-linecap="round" stroke-linejoin="round" stroke-width="1.104"
            d="M86.031 134.894c-.36-.905 4.693-33.144 5.71-34.113 1.016-.969 61.504 10.295 62.067 11.238.562.942-5.746 33.162-6.549 33.539-.804.378-60.869-9.759-61.228-10.664ZM80.472 103.352c1.44.669 1.838 2.273 1.147 3.702-.69 1.429-2.21 2.142-3.65 1.473-1.44-.668-1.838-2.272-1.147-3.701.69-1.429 2.21-2.142 3.65-1.474ZM159.93 128.302c1.55-.542 3.038.348 3.6 1.891.561 1.543-.016 3.155-1.566 3.698-1.55.542-3.038-.348-3.6-1.891-.562-1.543.016-3.155 1.566-3.698ZM163.956 116.633c.952.259 1.386 1.206 1.139 2.16-.247.955-1.081 1.557-2.033 1.298-.952-.258-1.386-1.205-1.139-2.16.247-.955 1.081-1.556 2.033-1.298ZM162.581 122.775c.952.259 1.386 1.205 1.139 2.16-.247.955-1.081 1.557-2.033 1.298-.951-.259-1.385-1.205-1.139-2.16.247-.955 1.081-1.557 2.033-1.298ZM158.022 120.299c.258-.952 1.205-1.386 2.16-1.139.955.247 1.557 1.081 1.298 2.033-.259.951-1.205 1.385-2.16 1.139-.955-.247-1.557-1.081-1.298-2.033ZM164.163 121.674c.259-.952 1.206-1.386 2.161-1.139.954.247 1.556 1.081 1.297 2.032-.258.952-1.205 1.386-2.16 1.139-.955-.246-1.556-1.08-1.298-2.032ZM81.575 114.261c-.496-.736-2.552-1.122-3.305-.493-.754.629-.69 2.417-.69 2.417s-1.45-.496-2.17-.049c-.721.446-.96 2.435-.346 3.107.614.673 2.269.543 2.269.543s-.558 1.793.05 2.614c.606.821 2.505 1.063 3.254.394.75-.669.543-2.515.543-2.515s1.621.448 2.367-.099c.747-.546.985-2.382.395-3.058-.59-.675-2.22-.592-2.22-.592s.348-1.532-.147-2.269Z" />
        <path stroke="#000" stroke-linecap="round" stroke-linejoin="round" stroke-width="1.104"
            d="M95.25 105.182c-.415.163-1.77 7.973-1.495 8.1.276.128 2.654.7 2.956.52.3-.18 1.482-7.672 1.127-7.943-.355-.272-2.172-.84-2.587-.677ZM142.89 132.481c-.416.163-1.771 7.972-1.495 8.1.275.128 2.653.7 2.955.52.301-.18 1.482-7.673 1.127-7.944-.354-.271-2.172-.839-2.587-.676ZM138.928 134.726c-.163-.416-3.477-1.084-3.604-.808-.128.275-.7 2.653-.52 2.955.179.301 3.176.796 3.447.441.271-.355.839-2.172.677-2.588Z" />
        <path stroke="#000" stroke-width="1.104"
            d="M111.994 134.067a.354.354 0 0 0-.463-.03c-1.888 1.396-6.146 1.839-5.911-.494.329-1.801.202-3.394.062-5.147-.172-2.146-.363-4.535.242-7.844 1.442-7.893 9-12.645 16.675-11.243 7.674 1.403 12.554 8.727 11.15 16.407-1.403 7.679-8.721 12.616-16.132 11.262-2.629-.48-3.837-1.084-5.623-2.911Zm9.569-17.875c-3.607-.857-6.911 1.151-8.261 4.992-1.117 3.181-.926 7.34-.176 7.685.318.146 1.234-.321 1.919-.766a.343.343 0 0 1 .413.032c.809.724 1.764 1.331 2.891 1.598 3.703.88 7.551-1.441 8.43-5.145.879-3.703-1.513-7.517-5.216-8.396Z"
            clip-rule="evenodd" />
        <ellipse cx="5.832" cy="15.852" stroke="#000" stroke-linecap="round" stroke-linejoin="round" stroke-width="1.104" rx="2.249" ry="2.359"
            transform="rotate(-30 5.832 15.852)" />
        <path stroke="#000" stroke-linecap="round" stroke-linejoin="round" stroke-width="1.104"
            d="M154.505 205.841c1.199.679 1.431 2.095.733 3.283-.698 1.188-2.063 1.698-3.261 1.019-1.199-.68-1.432-2.096-.733-3.284.698-1.188 2.063-1.698 3.261-1.018ZM163.467 204.366c.346-1.334 1.653-1.925 2.982-1.558 1.328.367 2.174 1.553 1.828 2.887-.347 1.334-1.654 1.925-2.982 1.558-1.328-.367-2.174-1.553-1.828-2.887ZM177.225 203.457c-.982-.967-.84-2.394.142-3.361.982-.967 2.432-1.106 3.414-.14.982.967.84 2.395-.142 3.362-.982.966-2.432 1.106-3.414.139ZM65.613 167.319l-10.146 2.882-3.122-11.023m13.268 8.141-2.886-11.412m2.886 11.412s9.07-2.125 10.36-2.694c1.29-.569-2.492-11.623-3.564-11.77-1.072-.146-9.683 3.052-9.683 3.052m-13.504-7.752-2.875-10.152 10.983-3.436 2.606 10.307m-10.714 3.281 10.714-3.281m-10.714 3.281 3.123 11.023m10.382-3.271-2.79-11.033m2.79 11.033-10.382 3.271M215.601 122.683l9.083-2.936c.494.558 2.451 6.249 3.368 9.025-2.579.956-5.905 2.176-9.34 3.415m-3.111-9.504-9.025 2.917m9.025-2.917a433.679 433.679 0 0 1 3.111 9.504m-3.111-9.504c-1.393-4.074-3.113-8.494-3.472-8.55-.649-.103-5.829 2.195-8.337 3.356l2.784 8.111m0 0-8.427 2.725c.832 2.999 2.552 9.14 2.772 9.702.1.257 3.906-.96 8.863-2.675m-3.208-9.752 3.208 9.752m8.928-3.165a739.844 739.844 0 0 1-8.928 3.165M105.091 154.613c-1.944.709-12.934 11.469-13.122 13.403-.01.109-.009.255.005.434m13.117-13.837c2.43-.887 16.263 3.881 17.362 4.763.13.105.295.417.485.89m-17.847-5.653 1.355 6.228m20.389 16.351c-.331 1.108-10.064 11.642-12.744 11.889m12.744-11.889c.291-.978-2.484-13.4-3.897-16.926m3.897 16.926c-1.934-1.456-4.164-1.789-6.573-1.576m-6.171 13.465c-2.68.247-16.564-3.251-17.596-4.466m17.596 4.466c-3.812-.171-9.37-6.014-11.672-8.914m11.672 8.914c3.002-1.683 5.365-9.678 6.171-13.465m-23.767 8.999c-.779-.917-4.286-13.164-4.52-16.165m4.52 16.165c.941-2.085 3.095-3.405 5.924-4.448M91.974 168.45c2.217-1.629 8.213-5.43 14.472-7.609m-14.472 7.609c2.162 3.146 7.256 9.798 10.34 11.232.161-5.625 2.822-14.905 4.132-18.841m0 0c6.259-2.179 13.602-1.292 16.492-.575m-16.492.575c3.546 2.691 10.502 10.787 13.537 14.499 1.062-3.189 3.139-10.668 2.955-15.074m-20.519 19.901c2.499-.921 5.524-1.627 8.705-2.454 3.169-.823 6.28-1.844 9.138-2.097M281.958 147.38l2.716-1.503c4.817-2.781 10.975-1.131 16.517 8.468s3.892 15.758-.924 18.539l-2.93 1.691m1.053-18.612c5.542 9.599 3.891 15.758-.925 18.538-4.817 2.781-10.975 1.131-16.517-8.468s-3.892-15.758.924-18.539c4.817-2.78 10.976-1.13 16.518 8.469Zm-6.47 3.967c2.852 4.939 3.308 7.123 1.76 8.016-1.547.894-3.393-.719-6.245-5.659-2.852-4.939-3.325-7.344-1.778-8.238 1.547-.893 3.412.942 6.263 5.881ZM-2.044 147.38l2.716-1.503c4.817-2.781 10.976-1.131 16.517 8.468 5.542 9.599 3.892 15.758-.924 18.539l-2.93 1.691m1.053-18.612c5.542 9.599 3.891 15.758-.925 18.538-4.817 2.781-10.975 1.131-16.517-8.468s-3.892-15.758.924-18.539c4.817-2.78 10.976-1.13 16.518 8.469Zm-6.47 3.967c2.852 4.939 3.308 7.123 1.76 8.016-1.547.894-3.393-.719-6.245-5.659-2.852-4.939-3.325-7.344-1.778-8.238 1.547-.893 3.412.942 6.264 5.881ZM164.623 168.074c4.628 2.668 9.125 5.684 9.022 6.121-.093.392-1.845 3.657-3.87 7.062m-5.152-13.183c-4.31-2.484-8.734-4.668-9.659-4.185-.992 1.537-2.704 4.389-4.44 7.699m14.099-3.514a335.935 335.935 0 0 1-4.238 8.467m-5.014 8.881a313.73 313.73 0 0 1-8.829-5.12c1.078-2.893 2.539-5.962 3.982-8.714m4.847 13.834c3.986 2.216 7.651 4.088 8.436 3.986.943-.122 3.637-4.23 5.968-8.151m-14.404 4.165c1.263-1.84 3.179-5.344 5.014-8.881m0 0-9.861-4.953m9.861 4.953 9.39 4.716M266.228 36.14c2.405-5.652 9.92-.85 9.92-.85s5.165-8.296 9.631-3.683c4.466 4.613-.947 16.264-5.379 18.327-4.433 2.064-16.577-8.14-14.172-13.793ZM-17.768 36.14c2.405-5.652 9.92-.85 9.92-.85s5.164-8.296 9.63-3.683C6.248 36.22.836 47.871-3.597 49.934c-4.432 2.064-16.576-8.14-14.171-13.793ZM171.406 222.854c4.774-3.867 9.162 3.898 9.162 3.898s8.45-4.909 10.233 1.259c1.784 6.168-8.458 13.924-13.34 13.669-4.883-.254-10.829-14.959-6.055-18.826ZM264.079 104.662c-1.539-1.953-22.576-.044-23.197 2.089-.622 2.132 13.264 4.663 13.264 4.663s-4.402 8.238-3.42 10.311c1.228 2.591 25.097 1.948 24.673-.832-.165-1.085-9.285-4.314-13.74-5.541 1.273-2.41 3.812-8.923 2.42-10.69ZM27.829 113.603c-.955-1.278 3.721-13.998 5.146-14.03 1.425-.03.688 8.996.688 8.996s5.836-1.36 6.958-.408c1.402 1.192-2.96 15.878-4.613 15.154-.645-.283-1.132-6.471-1.152-9.436-1.705.388-6.163.88-7.027-.276ZM89.21 59.78c-1.173 1.177-1.669 2.577-1.77 3.13 2.104-.649 5.08.796 6.306 1.6 12.605 7.998 35.036 21.753 47.684 28.1M89.232 59.67c2.104-.65 5.08.796 6.306 1.6 12.585 7.979 35.045 21.751 47.629 28.071m9.796 4.254c-2.406-.74-5.799-2.246-9.796-4.254m7.687 5.62c2.212.902 2.444-.462 2.284-1.257-.695-2.715-2.091-5.57-3.227-7.46.237-.519.543-.998.879-1.43 2.198 2.246 2.157 3.898 2.838 3.5.545-.317-.976-3.214-1.805-4.623a8.711 8.711 0 0 1 1.474-1.123c2.475 4.116 6.18 12.811 1.197 14.67-1.592.593-6.512-1.34-13.064-4.628m1.737-3.269c-.972.084-2.29 2.61-1.737 3.269M279.163 210.459c4.449-2.279.904-9.2.904-9.2 2.279 4.449 5.523 5.908 8.489 4.389-4.944 2.532-1.652 8.959-1.652 8.959-3.292-6.427-7.741-4.148-7.741-4.148ZM-4.834 210.459c4.45-2.279.905-9.2.905-9.2 2.279 4.449 5.522 5.908 8.489 4.389-4.944 2.532-1.652 8.959-1.652 8.959-3.292-6.427-7.742-4.148-7.742-4.148ZM281.967 251.914l-4.489-7.59c3.345-3.257 4.464-7.859 1.956-12.203-3.117-5.399-9.383-6.144-14.783-3.026-5.399 3.117-7.887 8.916-4.77 14.316 2.791 4.835 8.108 5.937 13.066 3.877 0 0 8.735 15.153 9.744 15.379 1.009.225 4.318-1.987 4.571-2.679.254-.691-1.905-3.056-1.905-3.056s3.958-1.725 4.227-2.441c.27-.716-2.915-5.695-3.628-5.796-.713-.101-3.989 3.219-3.989 3.219Z" />
        <path stroke="#000" stroke-linecap="round" stroke-linejoin="round" stroke-width="1.104"
            d="M275.357 234.475c1.818 3.148.367 6.529-2.781 8.346-3.147 1.818-6.801 1.384-8.618-1.764-1.817-3.148-.367-6.529 2.781-8.346 3.148-1.818 6.801-1.383 8.618 1.764Z" />
        <path stroke="#000" stroke-linecap="round" stroke-linejoin="round" stroke-width="1.104"
            d="M267.952 234.811s2.428.362 3.37 1.994c.942 1.632.042 3.916.042 3.916s-2.428-.362-3.37-1.994c-.943-1.632-.042-3.916-.042-3.916Z" />
        <path fill="#000"
            d="M-16.048 234.811s2.428.362 3.37 1.994c.942 1.632.042 3.916.042 3.916s-2.428-.362-3.37-1.994c-.943-1.632-.042-3.916-.042-3.916Z" />
        <path stroke="#000" stroke-linecap="round" stroke-linejoin="round" stroke-width="1.104"
            d="m-2.033 251.914-4.49-7.59c3.346-3.257 4.465-7.859 1.957-12.203-3.117-5.399-9.383-6.144-14.783-3.026-5.4 3.117-7.887 8.916-4.77 14.316 2.791 4.835 8.108 5.937 13.066 3.877 0 0 8.735 15.153 9.744 15.379 1.01.225 4.318-1.987 4.571-2.679.254-.691-1.905-3.056-1.905-3.056s3.958-1.725 4.227-2.441c.27-.716-2.915-5.695-3.628-5.796-.713-.101-3.99 3.219-3.99 3.219Z" />
        <path stroke="#000" stroke-linecap="round" stroke-linejoin="round" stroke-width="1.104"
            d="M-8.643 234.475c1.818 3.148.367 6.529-2.78 8.346-3.149 1.818-6.801 1.384-8.619-1.764-1.817-3.148-.367-6.529 2.781-8.346 3.148-1.818 6.801-1.383 8.618 1.764Z" />
        <path stroke="#000" stroke-linecap="round" stroke-linejoin="round" stroke-width="1.104"
            d="M-16.048 234.811s2.428.362 3.37 1.994c.942 1.632.042 3.916.042 3.916s-2.428-.362-3.37-1.994c-.943-1.632-.042-3.916-.042-3.916ZM193.278 11.833c3.155 1.578 3.55 3.55 2.367 4.34-1.578.788-2.762-1.973-2.367-4.34ZM140.577 236.271c-1.79 1.899-.749 10.375-.749 10.375s14.325 3.346 16.76.873c2.435-2.474-1.307-4.404-1.307-4.404s3.938-2.573 3.124-4.878c-.813-2.305-5.395-1.522-5.395-1.522s-.841-4.43-3.011-4.647c-2.169-.216-4.359 4.715-4.359 4.715s-3.274-2.41-5.063-.512ZM125.169 221.862c-2.077.639-3.488 1.157-3.518 1.371-.118.817 1.036 5.528 1.662 6.206.164.178 1.67-.053 3.806-.51m-1.95-7.067c.431 1.971 1.425 6.144 1.95 7.067m-1.95-7.067a179.77 179.77 0 0 1 6.596-1.861m-4.646 8.928c1.91-.409 4.323-1 6.731-1.643m-2.085-7.285c.614 1.95 1.891 6.139 2.085 7.285m-2.085-7.285c2.267-.6 4.558-1.171 6.451-1.608m-4.366 8.893c2.391-.638 4.777-1.328 6.661-1.945m-2.295-6.948c2.449-.565 4.231-.905 4.432-.786.705.417 1.659 4.918 1.625 6.067-.009.314-1.536.939-3.762 1.667m-2.295-6.948c.678 1.705 2.085 5.482 2.295 6.948m-20.495-22.448c-2.015.655-3.382 1.192-3.434 1.423-.203.901 1.152 5.557 1.663 6.206.132.168 1.584-.082 3.667-.557m-1.896-7.072c.42 1.817 1.387 5.776 1.896 7.072m-1.896-7.072c1.892-.615 4.354-1.333 6.836-1.999m-4.94 9.071c1.892-.431 4.305-1.048 6.725-1.705m-1.785-7.366c.382 2.013 1.274 6.305 1.785 7.366m-1.785-7.366a142.018 142.018 0 0 1 5.711-1.419m-3.926 8.785a222.64 222.64 0 0 0 6.316-1.811m-2.39-6.974c2.785-.623 4.865-.95 5.053-.646.604.978 2.028 5.353 1.626 6.067-.116.205-1.856.81-4.289 1.553m-2.39-6.974c.652 1.834 2.043 5.796 2.39 6.974m.272 1.169c-.585-.791-13.308 2.336-13.198 3.536.11 1.2 2.01 8.543 2.601 9.709.592 1.166 13.385-2.037 13.14-3.754-.088-.62-.368-1.924-.716-3.376 0 0 7.65-1.807 7.804-2.297.155-.491-.365-1.821-.589-2.047-.224-.226-7.805 2.009-7.805 2.009-.483-1.817-.974-3.425-1.237-3.78ZM270.391 83.766c9.544 13.285 30.047 40.605 34.289 42.993-.664-1.487-3.699-6.451-10.529-14.419m-26.547-26.618c11.137 16.921 36.2 51.029 47.356 52.091.461-2.774-6.753-17.616-41.171-56.854m-20.391-16.927c-1.531-1.897-3.955-1.088-3.955-1.088-1.065-2.329-2.535-7.146-1.197-8.018 1.338-.87 5.566 2.066 7.513 3.643 0 0-1.448 2.08-.254 3.566m-2.107 1.897c.066-.697.765-2.265 2.107-1.897m-2.107 1.897c.403.499 1.503 2.076 2.937 4.178m-.83-6.075c.303.377 1.141 1.35 2.301 2.676m13.229 14.76c-.843-.91-1.83-1.99-2.89-3.16m0 0c-.423.917-1.36 3.57-1.726 6.835a2151.5 2151.5 0 0 0-3.381-5.08m5.107-1.756a821.008 821.008 0 0 1-3.527-3.916m0 0c-.429.854-1.346 3.184-1.58 5.672m1.58-5.672a1140.074 1140.074 0 0 1-3.649-4.096m2.069 9.769a2199.818 2199.818 0 0 0-3.389-5.06m1.32-4.709c-.531 1.033-1.538 3.42-1.32 4.709m1.32-4.709a815.562 815.562 0 0 1-3.163-3.587m1.843 8.295a912.875 912.875 0 0 0-3.314-4.896m1.471-3.4c-.531.605-1.569 2.131-1.471 3.4m5.293 25.602c.909-2.053 4.021-7.147 9.205-11.102 5.184-3.954 10.377-5.252 12.326-5.407 0 0 .004-2.97-3.488-4.953-5.634 5.72-13.89 12.128-21.89 16.723 0 0 .922 3.018 3.847 4.74ZM-13.608 83.766c9.544 13.285 30.047 40.605 34.29 42.993-.664-1.487-3.7-6.451-10.53-14.419m-26.547-26.618c11.137 16.921 36.2 51.029 47.357 52.091.46-2.774-6.754-17.616-41.172-56.854M-30.6 64.032c-1.531-1.897-3.956-1.088-3.956-1.088-1.065-2.329-2.534-7.146-1.197-8.018 1.338-.87 5.566 2.066 7.513 3.643 0 0-1.448 2.08-.254 3.566m-2.106 1.897c1.247 1.545 9.199 13.454 13.02 19.214M-30.6 64.032c.065-.697.765-2.265 2.106-1.897m0 0c1.194 1.486 10.707 12.227 15.53 17.436m-9.406 14.241c.908-2.053 4.02-7.147 9.205-11.102 5.184-3.954 10.377-5.252 12.326-5.407 0 0 .004-2.97-3.489-4.953-5.633 5.72-13.89 12.128-21.89 16.723 0 0 .923 3.018 3.848 4.74Z" />
    </g>
    <defs>
        <clipPath id="a">
            <path fill="#fff" d="M0 0h284v284H0z" />
        </clipPath>
    </defs>
</svg>